<?xml version="1.0" encoding="utf-8" ?>
<svg baseProfile="full" height="200mm" version="1.1" viewBox="0,0,200,200" width="200mm" xmlns="http://www.w3.org/2000/svg" xmlns:ev="http://www.w3.org/2001/xml-events" xmlns:xlink="http://www.w3.org/1999/xlink"><defs /><rect fill="#1a1a1a" height="200" width="200" x="0" y="0" /><text alignment-baseline="middle" fill="#e1ed5e" style="dominant-baseline: central; font-size:9.0px; font-family:Arial;" text-anchor="middle" x="100.0" y="100.0">2023</text><line stroke="#e1ed5e" stroke-width="0.3" x1="100.0" x2="100.0" y1="15.0" y2="10.0" /><path d="M 100.0 14.0 a86.0,86.0 0 0,1 42.46469731375804,11.215312516191453" fill="none" id="id85" stroke="none" /><text fill="#e1ed5e" style="font-size:6.75px; font-family:Arial;" text-anchor="middle"><textPath startOffset="22.20632615414155" xlink:href="#id85">January</textPath></text><path d="M 110.36928655335952 81.73862282372117 l 6.654362255034706 -11.719014454992744 a34.476492007104795,34.476492007104795 0 0,0 0.5135409215693034,0.297476048545837 l -6.855099909069337 11.602734249056857" fill="#ff9f0e" stroke="none" /><line stroke="#e1ed5e" stroke-width="0.3" x1="143.23703022742887" x2="145.7803849466894" y1="26.81831364943548" y2="22.513508569990506" /><path d="M 143.74570117128098 25.957352633546492 a86.0,86.0 0 0,1 28.547481713284135,27.462654790039103" fill="none" id="id86" stroke="none" /><text fill="#e1ed5e" style="font-size:6.75px; font-family:Arial;" text-anchor="middle"><textPath startOffset="19.985693538727396" xlink:href="#id86">February</textPath></text><path d="M 115.4437574822437 85.77008943001954 l 6.48904506336275 -5.9790197458352 a29.823626406157487,29.823626406157487 0 0,0 0.3446139336831257,0.3805313128116274 l -6.59100263766191 5.866435645754023" fill="#ff5f08" stroke="none" /><path d="M 115.68641384162765 86.03803664274999 l 11.504531075174794 -10.239806429668166 a36.4015541740675,36.4015541740675 0 0,0 0.4125650510399908,0.47163317241902 l -11.679087989792633 10.040257701046198" fill="#ffb811" stroke="none" /><path d="M 117.45458315368197 88.32363383020206 l 19.20668984984483 -12.8484502678726 a44.107998815867376,44.107998815867376 0 0,0 0.41672263679508337,0.6346971655356793 l -19.425009121997842 12.515935038359247" fill="#e4ff1a" stroke="none" /><line stroke="#e1ed5e" stroke-width="0.3" x1="172.23445277983987" x2="176.4835382374775" y1="55.19839476539836" y2="52.563006222186495" /><path d="M 173.08426987136738 54.67131705675599 a86.0,86.0 0 0,1 12.851231095245387,41.99856678651699" fill="none" id="id87" stroke="none" /><text fill="#e1ed5e" style="font-size:6.75px; font-family:Arial;" text-anchor="middle"><textPath startOffset="22.20632615414155" xlink:href="#id87">March</textPath></text><path d="M 118.3937258080291 89.86733742301442 l 14.994298829233381 -8.25999975213241 a38.118895796329184,38.118895796329184 0 0,0 0.3116526511888109,0.5774450308181291 l -15.134259579640656 8.000673737981822" fill="#ffcf13" stroke="none" /><path d="M 118.73160827565052 90.50648371742162 l 20.420428932174456 -10.349440993640497 a43.89333629366489,43.89333629366489 0 0,0 0.33576309398314425,0.6768779089283056 l -20.59555203911101 9.996403496213242" fill="#e7ff1a" stroke="none" /><path d="M 119.47837535516314 92.15188598940014 l 25.124701606108538 -10.123099031191742 a48.08740970988751,48.08740970988751 0 0,0 0.3027364634823084,0.770431278517894 l -25.29523161947255 9.689118747778064" fill="#b5ff1f" stroke="none" /><path d="M 119.7369772167798 92.82701384747503 l 11.401230240502937 -4.14353554440691 a33.130825932504436,33.130825932504436 0 0,0 0.19018185697094658,0.5376697198211515 l -11.470865178283693 3.9466681981591436" fill="#ff8d0d" stroke="none" /><path d="M 120.28053869075195 94.5502522615342 l 18.165390974842182 -4.881369271943271 a39.809816459443454,39.809816459443454 0 0,0 0.17213701724226024,0.6633141465430225 l -18.246724323954748 4.567958699851398" fill="#ffe415" stroke="none" /><path d="M 120.6074358757038 95.95851677861258 l 18.371303365271817 -3.602938024584718 a39.72126998223801,39.72126998223801 0 0,0 0.1258110246785523,0.6720875245579717 l -18.43060011386023 3.2861724225641833" fill="#ffe315" stroke="none" /><path d="M 120.87857604477298 97.74499172005257 l 11.355028054000933 -1.226409417284849 a32.42106571936057,32.42106571936057 0 0,0 0.055151126473377235,0.5553643171377913 l -11.374456306156539 1.0307695694426229" fill="#ff830c" stroke="none" /><line stroke="#e1ed5e" stroke-width="0.3" x1="184.98032266829074" x2="189.97916517819016" y1="98.17113171792111" y2="98.06355123074" /><path d="M 185.9800911702706 98.14961562048488 a86.0,86.0 0 0,1 -9.607161424134198,41.387399972396054" fill="none" id="id88" stroke="none" /><text fill="#e1ed5e" style="font-size:6.75px; font-family:Arial;" text-anchor="middle"><textPath startOffset="21.466115282336823" xlink:href="#id88">April</textPath></text><path d="M 120.99980553446 99.90962569577887 l 22.864424146658312 -0.09839883613589788 a43.86463587921847,43.86463587921847 0 0,0 -0.003249539663441121,0.7550785767801932 l -22.862730309705366 -0.29518921884798005" fill="#e7ff1a" stroke="none" /><path d="M 120.89721153311464 102.0752229133903 l 10.412931624113778 1.0340687927518253 a31.4641503848431,31.4641503848431 0 0,0 -0.05816028110306676,0.5384919703372698 l -10.39358904150966 -1.2131570849738864" fill="#ff760a" stroke="none" /><path d="M 120.8583938346157 102.4346265915055 l 31.943928291491567 3.7285487018920973 a53.16079336885731,53.16079336885731 0 0,0 -0.1139121651827973,0.9079920356859764 l -31.87501461706192 -4.2778584918654685" fill="#7cff26" stroke="none" /><path d="M 120.49622156327973 104.57218783832717 l 13.862435607221416 3.092358232820992 a35.20316163410302,35.20316163410302 0 0,0 -0.13702316711556456,0.5902922177043897 l -13.807151874175299 -3.330519107873947" fill="#ffa90f" stroke="none" /><path d="M 120.41448212921028 104.9243191809786 l 9.407804787421691 2.2693220074054885 a30.67763469508585,30.67763469508585 0 0,0 -0.12824520144846802,0.5122758305096744 l -9.367348271678162 -2.4309256773125587" fill="#ff6b09" stroke="none" /><path d="M 118.81262510543309 109.33194174019688 l 56.43787531629926 27.995825220590632 a84.0,84.0 0 0,0 -0.6536853208549238,1.2897831531892228 l -55.94761132565807 -28.96316258548255" fill="#4dd2ff" stroke="none" /><line stroke="#e1ed5e" stroke-width="0.3" x1="174.80103733775053" x2="179.2010983576182" y1="140.37084112569926" y2="142.7455964860345" /><path d="M 175.68104954172406 140.8457921977663 a86.0,86.0 0 0,1 -30.038265399797805,32.042727171017184" fill="none" id="id89" stroke="none" /><text fill="#e1ed5e" style="font-size:6.75px; font-family:Arial;" text-anchor="middle"><textPath startOffset="22.206326154141568" xlink:href="#id89">May</textPath></text><path d="M 118.48025628344425 109.97397251340804 l 46.50333833447297 25.098300110982194 a73.84396980461813,73.84396980461813 0 0,0 -0.6133395406512288,1.113389422794494 l -46.06442238437023 -25.895060052174493" fill="#40ffc7" stroke="none" /><path d="M 115.56566222782051 114.09645910891815 l 9.763805085870231 8.842224450587244 a34.17257844878626,34.17257844878626 0 0,0 -0.3986045637656273,0.4326065286101322 l -9.610154114108882 -9.00898223399871" fill="#ff9b0e" stroke="none" /><path d="M 112.04921762599082 117.19931262002967 l 4.106543154610556 5.861768099485366 a28.157095914742452,28.157095914742452 0 0,0 -0.3993522460580561,0.27467811632692724 l -4.005034023929617 -5.931587005177388" fill="#ff4806" stroke="none" /><line stroke="#e1ed5e" stroke-width="0.3" x1="143.8653032363475" x2="146.44561519142675" y1="172.8068346515853" y2="177.08958963109032" /><path d="M 144.38136562736335 173.6633856474863 a86.0,86.0 0 0,1 -40.68145358897372,12.25698825130547" fill="none" id="id90" stroke="none" /><text fill="#e1ed5e" style="font-size:6.75px; font-family:Arial;" text-anchor="middle"><textPath startOffset="21.466115282336833" xlink:href="#id90">June</textPath></text><path d="M 108.59647513512805 119.15986991738527 l 4.2576982398841565 9.489580687590225 a31.400968028419182,31.400968028419182 0 0,0 -0.49505768142583173,0.2170187391329128 l -4.0937198838005715 -9.561463980017592" fill="#ff750a" stroke="none" /><path d="M 106.2309692047433 120.05430185196036 l 3.0819379594063085 9.919181446106194 a31.386939017169922,31.386939017169922 0 0,0 -0.5173240509314468,0.15586549287174598 l -2.910738934034616 -9.970762308083664" fill="#ff750a" stroke="none" /><path d="M 103.06178313531738 120.77559828337769 l 2.8365635161747886 19.24738020716286 a40.45527531083481,40.45527531083481 0 0,0 -0.689803686879774,0.09560050549602689 l -2.504831238108184 -19.293355278151488" fill="#ffed16" stroke="none" /><path d="M 102.34483914955558 120.86867818915974 l 1.851791251527809 16.48063395263568 a37.58434280639432,37.58434280639432 0 0,0 -0.6435287881514334,0.06670439012236141 l -1.5678298667707729 -16.5100677112138" fill="#ffc812" stroke="none" /><line stroke="#e1ed5e" stroke-width="0.3" x1="102.19456741930631" x2="102.32365962044197" y1="184.97166512339345" y2="189.96999836594603" /><path d="M 102.22038585953345 185.97133177190398 a86.0,86.0 0 0,1 -42.740103519485714,-10.115201625700543" fill="none" id="id91" stroke="none" /><text fill="#e1ed5e" style="font-size:6.75px; font-family:Arial;" text-anchor="middle"><textPath startOffset="22.20632615414155" xlink:href="#id91">July</textPath></text><path d="M 98.37488393609728 120.93702456842531 l -0.8875644989504924 11.434850798263334 a32.46924511545293,32.46924511545293 0 0,0 -0.5568563393796697,-0.04804790809095502 l 1.0842651560717038 -11.417878637893715" fill="#ff840c" stroke="none" /><path d="M 95.16358092515715 120.4354850818985 l -2.8698902266856376 12.126244232883456 a33.4612226169331,33.4612226169331 0 0,0 -0.5593548708643122,-0.13747581822205285 l 3.0781983822931607 -12.075047156347374" fill="#ff910d" stroke="none" /><path d="M 93.08242187328487 119.8279376855182 l -5.948666665828803 17.050735069613488 a39.0586323268206,39.0586323268206 0 0,0 -0.6328994556844036,-0.22693522732436078 l 6.241285682142933 -16.94581230124917" fill="#ffdb14" stroke="none" /><path d="M 91.07499286063937 119.00905698771935 l -7.925510262274687 16.880263945999122 a39.64824452338662,39.64824452338662 0 0,0 -0.6152790774381182,-0.2953713476182611 l 8.214902007713047 -16.741338321881297" fill="#ffe215" stroke="none" /><path d="M 90.42595943632237 118.69057910512821 l -4.7565900621273425 9.28588324183032 a31.43325340438129,31.43325340438129 0 0,0 -0.47944557279111094,-0.25082326368714913 l 4.915726537444949 -9.202630559198454" fill="#ff760a" stroke="none" /><line stroke="#e1ed5e" stroke-width="0.3" x1="58.666819895761336" x2="56.23545636021788" y1="174.27360380694188" y2="178.64263932499728" /><path d="M 58.180547188652646 175.14741091055294 a86.0,86.0 0 0,1 -31.652253787137756,-30.449443065178592" fill="none" id="id92" stroke="none" /><text fill="#e1ed5e" style="font-size:6.75px; font-family:Arial;" text-anchor="middle"><textPath startOffset="22.20632615414155" xlink:href="#id92">August</textPath></text><path d="M 87.95078237400918 117.19931262002967 l -5.9465278852769545 8.488201912959642 a31.363916518650086,31.363916518650086 0 0,0 -0.4395020725270284,-0.31357305924426015 l 6.09175728565287 -8.384584591871162" fill="#ff750a" stroke="none" /><path d="M 87.36589467227662 116.77436683061367 l -10.83039791643033 14.379575194221788 a39.00193605683836,39.00193605683836 0 0,0 -0.5327873803733784,-0.40851864405091054 l 11.076314025297195 -14.191017208343512" fill="#ffda14" stroke="none" /><path d="M 85.70375840098266 115.38237550388516 l -11.449083153942858 12.31890878657648 a37.81775902901125,37.81775902901125 0 0,0 -0.4730176247887804,-0.4472676885092969 l 11.659436613122455 -12.120006461321253" fill="#ffcb12" stroke="none" /><line stroke="#e1ed5e" stroke-width="0.3" x1="26.63291911575756" x2="22.317208475507996" y1="142.92168965132927" y2="145.44649492493687" /><path d="M 25.769776987707644 143.4266507060508 a86.0,86.0 0 0,1 -11.730757126820373,-40.83630448921669" fill="none" id="id93" stroke="none" /><text fill="#e1ed5e" style="font-size:6.75px; font-family:Arial;" text-anchor="middle"><textPath startOffset="21.46611528233685" xlink:href="#id93">September</textPath></text><path d="M 79.67330655649465 105.27499134158121 l -13.357028496131255 3.4662897761592517 a34.79947010065128,34.79947010065128 0 0,0 -0.14547617825545633,-0.5811050175248211 l 13.41471598868177 -3.2358569192370386" fill="#ffa30f" stroke="none" /><line stroke="#e1ed5e" stroke-width="0.3" x1="15.007084014347285" x2="10.007500721073583" y1="101.09737516637583" y2="101.16192664675087" /><path d="M 14.007167355692545 101.11028546245083 a86.0,86.0 0 0,1 10.666146001902534,-42.60595125391555" fill="none" id="id94" stroke="none" /><text fill="#e1ed5e" style="font-size:6.75px; font-family:Arial;" text-anchor="middle"><textPath startOffset="22.20632615414155" xlink:href="#id94">October</textPath></text><path d="M 79.00486145842228 99.54816195383935 l -33.32504848058375 -0.7171910184758573 a54.33276494967436,54.33276494967436 0 0,0 0.028171035516270142,-0.9348595213932509 l 33.307765750611836 1.2907206872941026" fill="#70ff27" stroke="none" /><path d="M 79.01574976396665 99.18683210126434 l -2.249273911475355 -0.08716238701417058 a23.25096210775607,23.25096210775607 0 0,0 0.01894000317920713,-0.399793532259047 l 2.247440300062649 0.12586702589622667" fill="#ff0000" stroke="none" /><path d="M 79.05617556472873 98.46500227214037 l -30.86132671181692 -2.2618632297926444 a51.94410301953819,51.94410301953819 0 0,0 0.07303221210405168,-0.8911779714792869 l 30.817820015893368 2.7927551184797097" fill="#8aff24" stroke="none" /><path d="M 79.46518482838121 95.60439243477599 l -14.187360743264328 -3.036894644167312 a35.508753700414445,35.508753700414445 0 0,0 0.1330827727040374,-0.5965839751228516 l 14.132983583558254 3.280656788840123" fill="#ffad10" stroke="none" /><path d="M 79.71946130924805 94.55025226153421 l -10.934780561639592 -2.9383734103467987 a32.32269686204855,32.32269686204855 0 0,0 0.1490126032009275,-0.5360776171460726 l 10.882581187872303 3.126162330911814" fill="#ff820b" stroke="none" /><path d="M 80.2630227832202 92.82701384747504 l -25.31544861035373 -9.200363375433406 a47.935452930728246,47.935452930728246 0 0,0 0.2885152999304885,-0.7730775630312716 l 25.153328721921614 9.634764075494019" fill="#b7ff1f" stroke="none" /><path d="M 81.10775173730289 90.83032412892265 l -42.43250412934991 -20.595341743023525 a68.16657193605684,68.16657193605684 0 0,0 0.5214417729913536,-1.0511947955422756 l 42.07170234340514 21.322696127064763" fill="#39ff89" stroke="none" /><line stroke="#e1ed5e" stroke-width="0.3" x1="26.266209847984243" x2="21.928928074336255" y1="57.711370442889674" y2="55.22380399835377" /><path d="M 25.398753493254645 57.213857153982495 a86.0,86.0 0 0,1 29.58750427330803,-30.492523968695096" fill="none" id="id95" stroke="none" /><text fill="#e1ed5e" style="font-size:6.75px; font-family:Arial;" text-anchor="middle"><textPath startOffset="21.46611528233685" xlink:href="#id95">November</textPath></text><path d="M 82.54541684631803 88.32363383020206 l -12.65605403188145 -8.466356362673864 a36.226782119597395,36.226782119597395 0 0,0 0.35118507271900773,-0.5153207602532425 l 12.508444493493702 8.682955146197523" fill="#ffb610" stroke="none" /><path d="M 85.05521093208273 85.24692304244772 l -3.242727233635479 -3.2011294513935837 a25.55658969804618,25.55658969804618 0 0,0 0.31174682621201366,-0.31040808626744415 l 3.187144607256152 3.2564733883111376" fill="#ff2203" stroke="none" /><line stroke="#e1ed5e" stroke-width="0.3" x1="56.762969772571076" x2="54.21961505331055" y1="26.818313649435495" y2="22.513508569990535" /><path d="M 56.25429882871897 25.957352633546506 a86.0,86.0 0 0,1 42.265352541879196,-11.944610805530505" fill="none" id="id96" stroke="none" /><text fill="#e1ed5e" style="font-size:6.75px; font-family:Arial;" text-anchor="middle"><textPath startOffset="22.20632615414155" xlink:href="#id96">December</textPath></text><path d="M 89.63071344664047 81.73862282372117 l -10.796776609519787 -19.014231011928874 a42.86575784487863,42.86575784487863 0 0,0 0.6447743003270545,-0.3588162000496852 l 10.467878220120687 19.197262609538743" fill="#f3ff19" stroke="none" /><path d="M 91.90106846888425 80.62456947434976 l -7.327207409968469 -17.529200928966908 a39.99896980461812,39.99896980461812 0 0,0 0.6375381139739519,-0.26006780431868676 l 7.024385426406137 17.65272961946917" fill="#ffe715" stroke="none" /><path d="M 94.63758080256005 79.69619591428918 l -6.669237686778569 -25.251829520906767 a47.11768798105388,47.11768798105388 0 0,0 0.7859479659750862,-0.2003556363884989 l 6.233580832118483 25.36288815346413" fill="#c1ff1e" stroke="none" /><path d="M 97.11714578562143 79.19881850522333 l -1.5797096642851423 -11.398365991577302 a32.50731201894612,32.50731201894612 0 0,0 0.5549234559329371,-0.07204499098992216 l 1.3832714798443473 11.423869305731362" fill="#ff840c" stroke="none" /><path d="M 97.47563105711357 79.15227682838746 l -1.2533314941163742 -10.350748493096665 a31.42635287152161,31.42635287152161 0 0,0 0.5375901113668355,-0.060404512835975664 l 1.0749746792398205 10.37078895940324" fill="#ff750a" stroke="none" /><path d="M 98.19473922651362 79.07773832637324 l -0.938566370149092 -10.877614737289079 a31.918031379514506,31.918031379514506 0 0,0 0.5477891259722809,-0.04251897901439784 l 0.751187054814477 10.89215897849194" fill="#ff7c0b" stroke="none" /><path d="M 99.63851952072746 79.00311137660856 l -0.7118112083762431 -41.34613490951234 a62.35226169330965,62.35226169330965 0 0,0 1.0732916876487688,-0.00923816040587166 l 1.0128382984043074e-14 41.35226169330965" fill="#32ff45" stroke="none" /></svg>