<?xml version="1.0" encoding="utf-8" ?>
<svg baseProfile="full" height="200mm" version="1.1" viewBox="0,0,200,200" width="200mm" xmlns="http://www.w3.org/2000/svg" xmlns:ev="http://www.w3.org/2001/xml-events" xmlns:xlink="http://www.w3.org/1999/xlink"><defs /><rect fill="#1a1a1a" height="200" width="200" x="0" y="0" /><text alignment-baseline="middle" fill="#e1ed5e" style="dominant-baseline: central; font-size:9.0px; font-family:Arial;" text-anchor="middle" x="100.0" y="100.0">2021</text><line stroke="#e1ed5e" stroke-width="0.3" x1="100.0" x2="100.0" y1="15.0" y2="10.0" /><path d="M 100.0 14.0 a86.0,86.0 0 0,1 42.46469731375804,11.215312516191453" fill="none" id="id61" stroke="none" /><text fill="#e1ed5e" style="font-size:6.75px; font-family:Arial;" text-anchor="middle"><textPath startOffset="22.20632615414155" xlink:href="#id61">January</textPath></text><path d="M 100.36148047927253 79.00311137660856 l 0.23567624582046295 -13.689447061235416 a34.69147560108884,34.69147560108884 0 0,0 0.5969797746676486,0.015418226317772434 l -0.47128265568297933 13.683362042775284" fill="#ffa20f" stroke="none" /><path d="M 102.88285421437855 79.19881850522331 l 1.7200228057061628 -12.410792879570382 a33.529415722680135,33.529415722680135 0 0,0 0.571007577644455,0.08415167387834165 l -1.9333993637792737 12.37934672153107" fill="#ff930d" stroke="none" /><path d="M 105.36241919743992 79.69619591428918 l 3.148945467537928 -11.922897016331856 a33.331720513358334,33.331720513358334 0 0,0 0.5534686332768279,0.15128388487330338 l -3.3537119900384664 11.866926590632259" fill="#ff900d" stroke="none" /><path d="M 107.08798089147638 80.2323363322302 l 3.0614828139708568 -8.538166724463016 a30.070444753977966,30.070444753977966 0 0,0 0.48573458725850643,0.1789001477701168 l -3.2079997270019396 8.484203308886574" fill="#ff6309" stroke="none" /><path d="M 108.09893153111575 80.62456947434976 l 5.432976192226981 -12.99754817725983 a35.08735209063419,35.08735209063419 0 0,0 0.5552427140879848,0.23772595323767576 l -5.655902664105281 12.902102696059362" fill="#ffa80f" stroke="none" /><path d="M 109.08828744355905 81.06846463323043 l 2.757976090143553 -5.745056174280789 a27.372762553198207,27.372762553198207 0 0,0 0.4230118071339863,0.20757005664053887 l -2.856459164287971 5.696730957505418" fill="#ff3d05" stroke="none" /><path d="M 110.36928655335952 81.73862282372117 l 6.2452983086995 -10.998610888671774 a33.648050934632344,33.648050934632344 0 0,0 0.5012009656440981,0.29032794958491615 l -6.433696006808926 10.889478781696807" fill="#ff940d" stroke="none" /><line stroke="#e1ed5e" stroke-width="0.3" x1="143.23703022742887" x2="145.7803849466894" y1="26.81831364943548" y2="22.513508569990506" /><path d="M 143.74570117128098 25.957352633546492 a86.0,86.0 0 0,1 28.547481713284135,27.462654790039103" fill="none" id="id62" stroke="none" /><text fill="#e1ed5e" style="font-size:6.75px; font-family:Arial;" text-anchor="middle"><textPath startOffset="19.985693538727396" xlink:href="#id62">February</textPath></text><path d="M 110.99172775467656 82.1063720568725 l 3.2649700964432085 -5.315102543941329 a27.23781570610097,27.23781570610097 0 0,0 0.3973878601696808,0.24884424158182178 l -3.3559771089851527 5.258113961036563" fill="#ff3b05" stroke="none" /><path d="M 111.60114157652 82.49532879139004 l 3.586046133713105 -5.410894961975348 a27.49134124527812,27.49134124527812 0 0,0 0.3922036562644352,0.26481765946914326 l -3.678654484384082 5.348365390207535" fill="#ff3f05" stroke="none" /><path d="M 112.19680574252982 82.90503203632743 l 3.6461926734221013 -5.110481240525184 a27.27787699158536,27.27787699158536 0 0,0 0.3798829945768744,0.27600115122612745 l -3.7336209843527643 5.046960854482381" fill="#ff3c05" stroke="none" /><path d="M 112.77801427241765 83.33499621200491 l 8.662393259874229 -11.297437411735961 a35.236191522342125,35.236191522342125 0 0,0 0.47815083162070376,0.37320430838277674 l -8.855576646654363 11.14665471412996" fill="#ffaa0f" stroke="none" /><path d="M 114.16331599549186 84.49514656593476 l 8.201281387554488 -8.978099897371075 a33.16006966119118,33.16006966119118 0 0,0 0.4181202390046243,0.3885971937649809 l -8.35460951035396 8.835598117531454" fill="#ff8e0d" stroke="none" /><path d="M 115.19652480421416 85.50635884689758 l 11.550015000579021 -11.015793076909269 a36.96090672947131,36.96090672947131 0 0,0 0.4351401882441491,0.4641772135466332 l -11.737922510793634 10.81534644648458" fill="#ffc011" stroke="none" /><path d="M 115.4437574822437 85.77008943001954 l 4.563645228984802 -4.20495229585392 a27.205520251070244,27.205520251070244 0 0,0 0.31436154758435336,0.3471258724836243 l -4.635350417185191 4.125773636100746" fill="#ff3b05" stroke="none" /><path d="M 116.15771136456269 86.58626213691792 l 12.364558217306504 -10.264754641150606 a37.070080514800935,37.070080514800935 0 0,0 0.40336044268956894,0.49447220886181065 l -12.539417152072481 10.050398262680694" fill="#ffc212" stroke="none" /><path d="M 116.82858285166822 87.43820079747576 l 6.302496789069175 -4.704537502454797 a28.864740230181216,28.864740230181216 0 0,0 0.29378448415579805,0.4007217062268647 l -6.3825438857386 4.5953533525564385" fill="#ff5207" stroke="none" /><path d="M 117.65298651832404 88.62581576622439 l 10.605672913179305 -6.833454356997815 a33.616512845890405,33.616512845890405 0 0,0 0.3092277424890171,0.48912402741463895 l -10.721728251914277 6.649882681868969" fill="#ff940d" stroke="none" /><line stroke="#e1ed5e" stroke-width="0.3" x1="172.23445277983987" x2="176.4835382374775" y1="55.19839476539836" y2="52.563006222186495" /><path d="M 173.08426987136738 54.67131705675599 a86.0,86.0 0 0,1 12.851231095245387,41.99856678651699" fill="none" id="id63" stroke="none" /><text fill="#e1ed5e" style="font-size:6.75px; font-family:Arial;" text-anchor="middle"><textPath startOffset="22.20632615414155" xlink:href="#id63">March</textPath></text><path d="M 118.56541770881063 90.18545643968196 l 8.068343223188217 -4.265301608915465 a30.126388123577918,30.126388123577918 0 0,0 0.23841531043313108,0.4605424936876427 l -8.140567966781465 4.125786392967477" fill="#ff6409" stroke="none" /><path d="M 118.89224826269711 90.83032412892265 l 10.565228099936142 -5.128014190439287 a32.74395905736336,32.74395905736336 0 0,0 0.24174678823929535,0.5091803891494109 l -10.651933082017193 4.9453913856493354" fill="#ff880c" stroke="none" /><path d="M 119.34039704204932 91.81776055985345 l 8.32292863055844 -3.5211373763640275 a30.03712063727143,30.03712063727143 0 0,0 0.19735577315840472,0.47791265882258427 l -8.382306090603043 3.37735014708814" fill="#ff6309" stroke="none" /><path d="M 119.61058180528143 92.48833698450437 l 12.439613255845048 -4.764885802410772 a34.32096523023056,34.32096523023056 0 0,0 0.20657202491887638,0.5535103256333245 l -12.51978986926555 4.550052339748114" fill="#ff9d0e" stroke="none" /><path d="M 120.28053869075195 94.5502522615342 l 6.217966502427163 -1.6708801181849715 a27.438551684552365,27.438551684552365 0 0,0 0.11864386386303048,0.45718320534226115 l -6.245806698160496 1.56360048729386" fill="#ff3e05" stroke="none" /><line stroke="#e1ed5e" stroke-width="0.3" x1="184.98032266829074" x2="189.97916517819016" y1="98.17113171792111" y2="98.06355123074" /><path d="M 185.9800911702706 98.14961562048488 a86.0,86.0 0 0,1 -9.607161424134198,41.387399972396054" fill="none" id="id64" stroke="none" /><text fill="#e1ed5e" style="font-size:6.75px; font-family:Arial;" text-anchor="middle"><textPath startOffset="21.466115282336823" xlink:href="#id64">April</textPath></text><path d="M 120.9904718944345 100.63252640178507 l 15.571944757146017 0.46924462849475246 a36.57901325633233,36.57901325633233 0 0,0 -0.02438229371410558,0.6291986604744537 l -15.561560330580708 -0.7372205359832124" fill="#ffbb11" stroke="none" /><path d="M 120.32669344350535 105.2749913415812 l 60.980080330516046 15.82497402474362 a84.0,84.0 0 0,0 -0.3752476946328911,1.396436267297807 l -60.69864455954138 -16.872301225216972" fill="#4dd2ff" stroke="none" /><line stroke="#e1ed5e" stroke-width="0.3" x1="174.80103733775053" x2="179.2010983576182" y1="140.37084112569926" y2="142.7455964860345" /><path d="M 175.68104954172406 140.8457921977663 a86.0,86.0 0 0,1 -30.038265399797805,32.042727171017184" fill="none" id="id65" stroke="none" /><text fill="#e1ed5e" style="font-size:6.75px; font-family:Arial;" text-anchor="middle"><textPath startOffset="22.206326154141568" xlink:href="#id65">May</textPath></text><path d="M 118.30583269289576 110.29060199501025 l 13.666643109435793 7.682687108881566 a36.67803607259735,36.67803607259735 0 0,0 -0.3141176939384595,0.5476906764409217 l -13.532373419344953 -7.916797631180802" fill="#ffbd11" stroke="none" /><path d="M 118.12598468904814 110.60418214915192 l 4.9786720237652204 2.9126552795110907 a26.768079047437396,26.768079047437396 0 0,0 -0.23609334097176127,0.3957060195322721 l -4.9277978070952315 -2.997923392929467" fill="#ff3405" stroke="none" /><path d="M 117.75023020441432 111.22182372390056 l 5.7270523401284485 3.6206838490742896 a27.775579683061675,27.775579683061675 0 0,0 -0.2589677818488898,0.40192374834966565 l -5.6638796949025085 -3.718729197345408" fill="#ff4306" stroke="none" /><path d="M 117.35343817320211 111.8261652097733 l 5.696867262577751 3.882348428764519 a27.89397751155024,27.89397751155024 0 0,0 -0.2738113914224162,0.3944457311625533 l -5.629194963993198 -3.9798354221140917" fill="#ff4406" stroke="none" /><path d="M 116.71984013943494 112.70617746262583 l 9.54473061876367 7.253480898356741 a32.98811360171361,32.98811360171361 0 0,0 -0.347464087692141,0.4491441719724689 l -9.41845971385346 -7.416703064442462" fill="#ff8b0c" stroke="none" /><path d="M 116.0416608686014 113.55231037782055 l 8.687728445616141 7.339563735801352 a32.37303043945008,32.37303043945008 0 0,0 -0.3632831957595046,0.42258042919020056 l -8.560102740285858 -7.488021264153081" fill="#ff830c" stroke="none" /><path d="M 115.32070863581623 114.36230785411682 l 5.7130729335821036 5.355686490460888 a28.830873522700625,28.830873522700625 0 0,0 -0.34252924104454674,0.3591405398213479 l -5.620037141158592 -5.453234146864744" fill="#ff5207" stroke="none" /><path d="M 114.0293411484842 115.62618273729858 l 9.827414193316697 10.945985873077172 a35.710291515147055,35.710291515147055 0 0,0 -0.4609308378626479,0.40671787290421735 l -9.63754100254746 -11.113526887753679" fill="#ffb010" stroke="none" /><path d="M 111.7513745106137 117.40417183066458 l 4.434922982305259 6.568266679790563 a28.925318229309553,28.925318229309553 0 0,0 -0.4150442966423385,0.2750687281407847 l -4.321203986922956 -6.643633429022667" fill="#ff5307" stroke="none" /><line stroke="#e1ed5e" stroke-width="0.3" x1="143.8653032363475" x2="146.44561519142675" y1="172.8068346515853" y2="177.08958963109032" /><path d="M 144.38136562736335 173.6633856474863 a86.0,86.0 0 0,1 -40.68145358897372,12.25698825130547" fill="none" id="id66" stroke="none" /><text fill="#e1ed5e" style="font-size:6.75px; font-family:Arial;" text-anchor="middle"><textPath startOffset="21.466115282336833" xlink:href="#id66">June</textPath></text><path d="M 110.21172684928248 118.3499491758327 l 5.546126182237332 9.966104173062643 a32.405382414353106,32.405382414353106 0 0,0 -0.4897490071899299,0.26705020762396875 l -5.373754363178753 -10.060095032446382" fill="#ff840c" stroke="none" /><path d="M 109.2508944713604 118.85261126421891 l 5.974295781002777 12.175155200980843 a34.56195466173215,34.56195466173215 0 0,0 -0.5363477711147052,0.25747952393543283 l -5.763835341887838 -12.276189001415835" fill="#ffa10e" stroke="none" /><path d="M 106.2309692047433 120.05430185196036 l 1.6808876208205175 5.409917240723521 a26.665032016264803,26.665032016264803 0 0,0 -0.4394968994372056,0.13241681055238977 l -1.5875157469430659 -5.4380494203816365" fill="#ff3304" stroke="none" /><path d="M 105.53697534728816 120.25689768951611 l 3.387650591803591 12.393642221940478 a33.848289538207524,33.848289538207524 0 0,0 -0.5633476518136732,0.14878523503112148 l -3.17381249717842 -12.450118806275183" fill="#ff970d" stroke="none" /><path d="M 104.13013068566511 120.58985236759428 l 1.1530861924193787 5.748455987465461 a26.86296460905025,26.86296460905025 0 0,0 -0.4541534478489044,0.0870395891745584 l -1.0539651299987698 -5.767452774988487" fill="#ff3605" stroke="none" /><path d="M 103.7750983002368 120.6578951692458 l 1.0397202709738689 5.689502803614595 a26.783723748089315,26.783723748089315 0 0,0 -0.4542405124138329,0.07897553557058927 l -0.9416307870879861 -5.706556917706191" fill="#ff3505" stroke="none" /><path d="M 102.70371172650421 120.8252237178851 l 1.7653954751317582 13.597882999048972 a34.71200361870725,34.71200361870725 0 0,0 -0.593199342366442,0.07182817924450614 l -1.531068709713936 -13.626256707018829" fill="#ffa30f" stroke="none" /><path d="M 101.62511606390274 120.93702456842531 l 0.8782082757941269 11.314310808262729 a32.34834255923058,32.34834255923058 0 0,0 -0.5555246168542071,0.038312230076303494 l -0.6833208981609894 -11.327751382855318" fill="#ff830c" stroke="none" /><path d="M 101.26447882468166 120.96189622390904 l 0.41900229433545333 6.946010039868191 a27.95863624545845,27.95863624545845 0 0,0 -0.4806381559760884,0.02484350261931242 l -0.2993760699458854 -6.952193349249705" fill="#ff4506" stroke="none" /><line stroke="#e1ed5e" stroke-width="0.3" x1="102.19456741930631" x2="102.32365962044197" y1="184.97166512339345" y2="189.96999836594603" /><path d="M 102.22038585953345 185.97133177190398 a86.0,86.0 0 0,1 -42.740103519485714,-10.115201625700543" fill="none" id="id67" stroke="none" /><text fill="#e1ed5e" style="font-size:6.75px; font-family:Arial;" text-anchor="middle"><textPath startOffset="22.20632615414155" xlink:href="#id67">July</textPath></text><path d="M 98.01472825383883 120.90594882070398 l -0.5956188194194418 6.272177388062244 a27.300394508708635,27.300394508708635 0 0,0 -0.4674443792923468,-0.0484525211784025 l 0.703495795317382 -6.2609954984280805" fill="#ff3c05" stroke="none" /><path d="M 96.58105272829116 120.7198165907248 l -0.922384236154409 5.58991721148798 a26.6655067831921,26.6655067831921 0 0,0 -0.452235603192995,-0.07862695640347651 l 1.018468810819454 -5.5732116765634965" fill="#ff3304" stroke="none" /><path d="M 96.22490169976321 120.6578951692458 l -1.237823383187783 6.773552277123606 a27.88572561019482,27.88572561019482 0 0,0 -0.47144455632317345,-0.0903534712668347 l 1.3542355540826516 -6.7512416075083035" fill="#ff4406" stroke="none" /><path d="M 94.81253420990036 120.34920634021253 l -2.8420052204838715 11.14851701999883 a32.50506086113677,32.50506086113677 0 0,0 -0.5409918775219764,-0.142880871852214 l 3.033487540817337 -11.097944798843033" fill="#ff850c" stroke="none" /><path d="M 90.42595943632237 118.69057910512821 l -2.6546799866358497 5.182504289490781 a26.822858107668026,26.822858107668026 0 0,0 -0.40912407010128643,-0.21403437707930217 l 2.7434949592636317 -5.136040493466762" fill="#ff3505" stroke="none" /><line stroke="#e1ed5e" stroke-width="0.3" x1="58.666819895761336" x2="56.23545636021788" y1="174.27360380694188" y2="178.64263932499728" /><path d="M 58.180547188652646 175.14741091055294 a86.0,86.0 0 0,1 -31.652253787137756,-30.449443065178592" fill="none" id="id68" stroke="none" /><text fill="#e1ed5e" style="font-size:6.75px; font-family:Arial;" text-anchor="middle"><textPath startOffset="22.20632615414155" xlink:href="#id68">August</textPath></text><path d="M 89.7882731507175 118.34994917583269 l -5.06814520131456 9.107196875952182 a31.422434011254808,31.422434011254808 0 0,0 -0.4703657560845212,-0.26708595209695385 l 5.224159724320288 -9.018607758060595" fill="#ff760a" stroke="none" /><path d="M 89.4739219176387 118.17145234162733 l -2.74836758625242 4.744581050994433 a26.48311715528844,26.48311715528844 0 0,0 -0.39249509209739036,-0.23189301869649206 l 2.829630549378192 -4.696569460004191" fill="#ff3004" stroke="none" /><path d="M 87.95078237400918 117.19931262002967 l -3.265641233876069 4.6614465959299425 a26.691528532397818,26.691528532397818 0 0,0 -0.37402797262030396,-0.2668590274059841 l 3.3453965343452605 -4.604543306679739" fill="#ff3304" stroke="none" /><path d="M 85.70375840098266 115.38237550388516 l -4.718131340726042 5.076583762034749 a27.930545868926647,27.930545868926647 0 0,0 -0.3493501678890777,-0.33033238907716234 l 4.804817343005936 -4.994616736211657" fill="#ff4506" stroke="none" /><path d="M 84.9287848128048 114.62390073753433 l -3.23240928040062 3.1364712050442582 a25.503989495557448,25.503989495557448 0 0,0 -0.30300372823054617,-0.31769819765678575 l 3.285919560010124 -3.080365890804972" fill="#ff2203" stroke="none" /><path d="M 82.24976979558568 111.22182372390057 l -5.279845834968749 3.3379566668749505 a27.246497158485848,27.246497158485848 0 0,0 -0.24721053113705319,-0.3985820897396551 l 5.336521005773758 -3.246578245770031" fill="#ff3b05" stroke="none" /><line stroke="#e1ed5e" stroke-width="0.3" x1="26.63291911575756" x2="22.317208475507996" y1="142.92168965132927" y2="145.44649492493687" /><path d="M 25.769776987707644 143.4266507060508 a86.0,86.0 0 0,1 -11.730757126820373,-40.83630448921669" fill="none" id="id69" stroke="none" /><text fill="#e1ed5e" style="font-size:6.75px; font-family:Arial;" text-anchor="middle"><textPath startOffset="21.46611528233685" xlink:href="#id69">September</textPath></text><path d="M 81.35079622478065 109.6543875284942 l -7.6159975510335824 3.9426772670822037 a29.576020215094896,29.576020215094896 0 0,0 -0.23015964599900351,-0.4541268168073142 l 7.682735866818852 -3.8109962385722045" fill="#ff5c08" stroke="none" /><path d="M 80.73074385275274 108.34839909993369 l -7.284246761490742 3.155897593691574 a28.938509967503766,28.938509967503766 0 0,0 -0.19409336831807433,-0.45877938844979915 l 7.337491111001123 -3.0300436795756163" fill="#ff5307" stroke="none" /><path d="M 80.20201598880116 107.00284435728193 l -5.653297714709982 1.999656327588597 a26.99653237126343,26.99653237126343 0 0,0 -0.15119236855231077,-0.4394357945919654 l 5.686880914205521 -1.9020478299073347" fill="#ff3805" stroke="none" /><path d="M 79.50377843672027 104.57218783832718 l -5.886935700396562 1.3132262320285055 a27.031631211960107,27.031631211960107 0 0,0 -0.09739877907139867,-0.45501467009840924 l 5.908668518192402 -1.2116977425139324" fill="#ff3805" stroke="none" /><line stroke="#e1ed5e" stroke-width="0.3" x1="15.007084014347285" x2="10.007500721073583" y1="101.09737516637583" y2="101.16192664675087" /><path d="M 14.007167355692545 101.11028546245083 a86.0,86.0 0 0,1 10.666146001902534,-42.60595125391555" fill="none" id="id70" stroke="none" /><text fill="#e1ed5e" style="font-size:6.75px; font-family:Arial;" text-anchor="middle"><textPath startOffset="22.20632615414155" xlink:href="#id70">October</textPath></text><path d="M 79.00019446554 99.90962569577889 l -10.714429491925234 -0.04611038463523057 a31.7145287112877,31.7145287112877 0 0,0 0.007048165702885023,-0.5458882010395547 l 10.712048319104634 0.23053484373525723" fill="#ff7a0b" stroke="none" /><path d="M 79.62865764111835 94.90015583598534 l -6.852795291517346 -1.7155564645152044 a28.06427188678226,28.06427188678226 0 0,0 0.12134946812899237,-0.4676090022644593 l 6.822249491518046 1.8332618923285273" fill="#ff4706" stroke="none" /><path d="M 80.14247586403 93.16781622104843 l -5.823312345315844 -2.003570025800292 a27.158348765650846,27.158348765650846 0 0,0 0.1558978701900915,-0.4407442724603679 l 5.787961394315943 2.103511924687271" fill="#ff3a05" stroke="none" /><path d="M 81.43458229118936 90.18545643968196 l -7.333133146671351 -3.876635356685913 a29.294766026568645,29.294766026568645 0 0,0 0.23950828866912888,-0.4437724838989192 l 7.26531675878375 4.002288823917305" fill="#ff5808" stroke="none" /><line stroke="#e1ed5e" stroke-width="0.3" x1="26.266209847984243" x2="21.928928074336255" y1="57.711370442889674" y2="55.22380399835377" /><path d="M 25.398753493254645 57.213857153982495 a86.0,86.0 0 0,1 29.58750427330803,-30.492523968695096" fill="none" id="id71" stroke="none" /><text fill="#e1ed5e" style="font-size:6.75px; font-family:Arial;" text-anchor="middle"><textPath startOffset="21.46611528233685" xlink:href="#id71">November</textPath></text><path d="M 81.96595687620814 89.24020034530311 l -4.545560056992392 -2.712054928331955 a26.293142560522465,26.293142560522465 0 0,0 0.23524124288240272,-0.3866747507785713 l 4.498203015823773 2.7898974523176006" fill="#ff2d04" stroke="none" /><path d="M 82.7489923806493 88.02491185347247 l -5.034972081148878 -3.495113782190323 a27.129173207570936,27.129173207570936 0 0,0 0.2695960039797522,-0.3813244285135169 l 4.974063457365247 3.581264711035626" fill="#ff3a05" stroke="none" /><path d="M 86.10567301691215 84.25364557470407 l -8.389202689243444 -9.507431274020272 a33.67950989555307,33.67950989555307 0 0,0 0.4380039529053762,-0.37983271179691636 l 8.224304937691294 9.65042897923687" fill="#ff950d" stroke="none" /><path d="M 86.65592168130627 83.78471172551755 l -3.733109427964968 -4.536352686857276 a26.874912910053915,26.874912910053915 0 0,0 0.35973555632815174,-0.2908811352863169 l 3.654470473072316 4.599939919407728" fill="#ff3605" stroke="none" /><path d="M 88.39885842347998 82.49532879139004 l -3.4911951625819744 -5.26777671343778 a27.319645177213125,27.319645177213125 0 0,0 0.3942263491699452,-0.25641578361945133 l 3.4000017876277417 5.327091421216767" fill="#ff3c05" stroke="none" /><line stroke="#e1ed5e" stroke-width="0.3" x1="56.762969772571076" x2="54.21961505331055" y1="26.818313649435495" y2="22.513508569990535" /><path d="M 56.25429882871897 25.957352633546506 a86.0,86.0 0 0,1 42.265352541879196,-11.944610805530505" fill="none" id="id72" stroke="none" /><text fill="#e1ed5e" style="font-size:6.75px; font-family:Arial;" text-anchor="middle"><textPath startOffset="22.20632615414155" xlink:href="#id72">December</textPath></text><path d="M 90.26544431104013 81.39251694778311 l -6.078521769378198 -11.619019338962916 a34.11297210017618,34.11297210017618 0 0,0 0.5226424290670852,-0.2677177517102382 l 5.877618852722349 11.72192961598566" fill="#ff9b0e" stroke="none" /><path d="M 90.58718382345135 81.22770947309562 l -6.724509697765529 -13.4109120299135 a36.002386215179946,36.002386215179946 0 0,0 0.5563718468101739,-0.2730092489333499 l 6.49266658394493 13.524676438981679" fill="#ffb410" stroke="none" /><path d="M 92.57280143429618 80.3572730644239 l -2.4557982087840777 -6.494854445762538 a27.943635871350722,27.943635871350722 0 0,0 0.4513797699875139,-0.1662469786369804 l 2.343636113023994 6.536164692205841" fill="#ff4506" stroke="none" /><path d="M 95.33964822691252 79.52364482259891 l -1.6528380634250666 -7.262134037362105 a28.4478496521157,28.4478496521157 0 0,0 0.4784078612776851,-0.10456142863530873 l 1.5275874779938605 7.289508964093282" fill="#ff4c07" stroke="none" /><path d="M 95.692805502759 79.44645832069477 l -1.7296606363096296 -8.253783756971206 a29.433070154080347,29.433070154080347 0 0,0 0.49676517786268387,-0.09964642135509698 l 1.5873290489798093 8.282334134403513" fill="#ff5a08" stroke="none" /><path d="M 97.83486435360386 79.11191278185805 l -0.22679365074384858 -2.187985572702346 a23.199708213916413,23.199708213916413 0 0,0 0.3975710497631795,-0.03775416169606127 l 0.18909747389043277 2.1915652789135875" fill="#ff0000" stroke="none" /><path d="M 98.55514903715128 79.0497635885617 l -0.4011937418312342 -5.817280781390854 a26.831098705048984,26.831098705048984 0 0,0 0.4610323182910343,-0.02781072846396241 l 0.3009993747005769 5.823324779235123" fill="#ff3505" stroke="none" /></svg>