<?xml version="1.0" encoding="utf-8" ?>
<svg baseProfile="full" height="200mm" version="1.1" viewBox="0,0,200,200" width="200mm" xmlns="http://www.w3.org/2000/svg" xmlns:ev="http://www.w3.org/2001/xml-events" xmlns:xlink="http://www.w3.org/1999/xlink"><defs /><rect fill="#1a1a1a" height="200" width="200" x="0" y="0" /><text alignment-baseline="middle" fill="#e1ed5e" style="dominant-baseline: central; font-size:9.0px; font-family:Arial;" text-anchor="middle" x="100.0" y="100.0">2017</text><line stroke="#e1ed5e" stroke-width="0.3" x1="100.0" x2="100.0" y1="15.0" y2="10.0" /><path d="M 100.0 14.0 a86.0,86.0 0 0,1 42.46469731375804,11.215312516191453" fill="none" id="id13" stroke="none" /><text fill="#e1ed5e" style="font-size:6.75px; font-family:Arial;" text-anchor="middle"><textPath startOffset="22.20632615414155" xlink:href="#id13">January</textPath></text><line stroke="#e1ed5e" stroke-width="0.3" x1="143.23703022742887" x2="145.7803849466894" y1="26.81831364943548" y2="22.513508569990506" /><path d="M 143.74570117128098 25.957352633546492 a86.0,86.0 0 0,1 28.547481713284135,27.462654790039103" fill="none" id="id14" stroke="none" /><text fill="#e1ed5e" style="font-size:6.75px; font-family:Arial;" text-anchor="middle"><textPath startOffset="19.985693538727396" xlink:href="#id14">February</textPath></text><path d="M 114.42810811169701 84.74124197986012 l 5.3959768853722645 -5.706632147385486 a28.85380271034645,28.85380271034645 0 0,0 0.3579475757879368,0.3443452843065026 l -5.49340770477262 5.612903776316681" fill="#ff5908" stroke="none" /><path d="M 114.94478906791727 85.2469230424477 l 42.865881591166264 -42.3159970404275 a81.23393902206094,81.23393902206094 0 0,0 0.9737850215245357,1.0035710628010162 l -43.58793087639391 41.57186178207637" fill="#4aecff" stroke="none" /><line stroke="#e1ed5e" stroke-width="0.3" x1="172.23445277983987" x2="176.4835382374775" y1="55.19839476539836" y2="52.563006222186495" /><path d="M 173.08426987136738 54.67131705675599 a86.0,86.0 0 0,1 12.851231095245387,41.99856678651699" fill="none" id="id15" stroke="none" /><text fill="#e1ed5e" style="font-size:6.75px; font-family:Arial;" text-anchor="middle"><textPath startOffset="22.20632615414155" xlink:href="#id15">March</textPath></text><path d="M 118.73160827565052 90.50648371742162 l 6.4171814895289705 -3.2523431017024205 a28.19430009943598,28.19430009943598 0 0,0 0.2156729525124343,0.4347835117231165 l -6.472214454994813 3.141400001480354" fill="#ff5007" stroke="none" /><path d="M 120.08093135843002 93.85539295169968 l 6.109957369234173 -1.8695988968683965 a27.389599290177006,27.389599290177006 0 0,0 0.1340709184525572,0.45202048679825974 l -6.141234184798432 1.764149023323607" fill="#ff4406" stroke="none" /><path d="M 120.53481517161879 95.60439243477599 l 3.534050931998759 -0.7564860400618908 a24.61410945030305,24.61410945030305 0 0,0 0.08511875993839696,0.4150693027719301 l -3.546548987852153 0.6955410811265489" fill="#ff1d02" stroke="none" /><path d="M 120.87857604477298 97.74499172005257 l 4.109113176899919 -0.4438082471371507 a25.133010629166044,25.133010629166044 0 0,0 0.0427534942825195,0.43052185287507383 l -4.116143796864668 0.3730108635576419" fill="#ff2403" stroke="none" /><line stroke="#e1ed5e" stroke-width="0.3" x1="184.98032266829074" x2="189.97916517819016" y1="98.17113171792111" y2="98.06355123074" /><path d="M 185.9800911702706 98.14961562048488 a86.0,86.0 0 0,1 -9.607161424134198,41.387399972396054" fill="none" id="id16" stroke="none" /><text fill="#e1ed5e" style="font-size:6.75px; font-family:Arial;" text-anchor="middle"><textPath startOffset="21.466115282336823" xlink:href="#id16">April</textPath></text><path d="M 120.49622156327973 104.57218783832717 l 2.660780931257683 0.5935528251775258 a23.726180500337556,23.726180500337556 0 0,0 -0.09235069365367356,0.3978443712178172 l -2.6501696716734564 -0.639265853743908" fill="#ff1001" stroke="none" /><line stroke="#e1ed5e" stroke-width="0.3" x1="174.80103733775053" x2="179.2010983576182" y1="140.37084112569926" y2="142.7455964860345" /><path d="M 175.68104954172406 140.8457921977663 a86.0,86.0 0 0,1 -30.038265399797805,32.042727171017184" fill="none" id="id17" stroke="none" /><text fill="#e1ed5e" style="font-size:6.75px; font-family:Arial;" text-anchor="middle"><textPath startOffset="22.206326154141568" xlink:href="#id17">May</textPath></text><path d="M 118.48025628344425 109.97397251340804 l 16.75618667191528 9.043475519597573 a40.04085715658914,40.04085715658914 0 0,0 -0.33257476542340464,0.6037198021142075 l -16.598035497040367 -9.330565840109585" fill="#ffed16" stroke="none" /><path d="M 117.75023020441432 111.22182372390056 l 33.47122312207335 21.160748980362 a60.5992433601642,60.5992433601642 0 0,0 -0.5650017682357489,0.8768952913455816 l -33.10201649046054 -21.733765871629036" fill="#30ff32" stroke="none" /><path d="M 114.29624159901734 115.38237550388516 l 1.1306268070281846 1.2165243557202943 a22.660797544805334,22.660797544805334 0 0,0 -0.2880084321023203,0.2630888741114544 l -1.1095188254590003 -1.2358059964183317" fill="#ff0000" stroke="none" /><line stroke="#e1ed5e" stroke-width="0.3" x1="143.8653032363475" x2="146.44561519142675" y1="172.8068346515853" y2="177.08958963109032" /><path d="M 144.38136562736335 173.6633856474863 a86.0,86.0 0 0,1 -40.68145358897372,12.25698825130547" fill="none" id="id18" stroke="none" /><text fill="#e1ed5e" style="font-size:6.75px; font-family:Arial;" text-anchor="middle"><textPath startOffset="21.466115282336833" xlink:href="#id18">June</textPath></text><line stroke="#e1ed5e" stroke-width="0.3" x1="102.19456741930631" x2="102.32365962044197" y1="184.97166512339345" y2="189.96999836594603" /><path d="M 102.22038585953345 185.97133177190398 a86.0,86.0 0 0,1 -42.740103519485714,-10.115201625700543" fill="none" id="id19" stroke="none" /><text fill="#e1ed5e" style="font-size:6.75px; font-family:Arial;" text-anchor="middle"><textPath startOffset="22.20632615414155" xlink:href="#id19">July</textPath></text><line stroke="#e1ed5e" stroke-width="0.3" x1="58.666819895761336" x2="56.23545636021788" y1="174.27360380694188" y2="178.64263932499728" /><path d="M 58.180547188652646 175.14741091055294 a86.0,86.0 0 0,1 -31.652253787137756,-30.449443065178592" fill="none" id="id20" stroke="none" /><text fill="#e1ed5e" style="font-size:6.75px; font-family:Arial;" text-anchor="middle"><textPath startOffset="22.20632615414155" xlink:href="#id20">August</textPath></text><path d="M 84.43433777217949 114.09645910891817 l -6.256884945869652 5.666313549513976 a29.44131023403689,29.44131023403689 0 0,0 -0.33695039854802744,-0.37856734475536213 l 6.353494194066019 -5.5577720350177495" fill="#ff6109" stroke="none" /><path d="M 82.85270091963577 112.12312394758628 l -7.699690690235437 5.443673907962048 a30.429677743248973,30.429677743248973 0 0,0 -0.29870219834961664,-0.43030279498529383 l 7.792253795747187 -5.310329850789742" fill="#ff6f0a" stroke="none" /><line stroke="#e1ed5e" stroke-width="0.3" x1="26.63291911575756" x2="22.317208475507996" y1="142.92168965132927" y2="145.44649492493687" /><path d="M 25.769776987707644 143.4266507060508 a86.0,86.0 0 0,1 -11.730757126820373,-40.83630448921669" fill="none" id="id21" stroke="none" /><text fill="#e1ed5e" style="font-size:6.75px; font-family:Arial;" text-anchor="middle"><textPath startOffset="21.46611528233685" xlink:href="#id21">September</textPath></text><line stroke="#e1ed5e" stroke-width="0.3" x1="15.007084014347285" x2="10.007500721073583" y1="101.09737516637583" y2="101.16192664675087" /><path d="M 14.007167355692545 101.11028546245083 a86.0,86.0 0 0,1 10.666146001902534,-42.60595125391555" fill="none" id="id22" stroke="none" /><text fill="#e1ed5e" style="font-size:6.75px; font-family:Arial;" text-anchor="middle"><textPath startOffset="22.20632615414155" xlink:href="#id22">October</textPath></text><path d="M 79.05617556472873 98.46500227214037 l -8.311393450905484 -0.6091518815924467 a29.33368628582827,29.33368628582827 0 0,0 0.041242487098381866,-0.50326280598938 l 8.299676479987607 0.7521286047896051" fill="#ff6008" stroke="none" /><path d="M 79.16333360222342 97.38593545837743 l -8.446047653149188 -1.0595991347880718 a29.512254183570327,29.512254183570327 0 0,0 0.06757463133182105,-0.5035094932523223 l 8.426557022759534 1.2048269701050536" fill="#ff6209" stroke="none" /><path d="M 79.81627453868168 94.20196356495316 l -7.628019145992584 -2.191247251180713 a28.93651312652077,28.93651312652077 0 0,0 0.14164299559790564,-0.4775497666511962 l 7.589170253282972 2.322226404578448" fill="#ff5a08" stroke="none" /><path d="M 80.803312248108 91.48605970444005 l -2.43466923742584 -1.0798023489670534 a23.663378945719607,23.663378945719607 0 0,0 0.1683454279670817,-0.3709268354933721 l 2.4157214924954062 1.1215511933024964" fill="#ff0f01" stroke="none" /><line stroke="#e1ed5e" stroke-width="0.3" x1="26.266209847984243" x2="21.928928074336255" y1="57.711370442889674" y2="55.22380399835377" /><path d="M 25.398753493254645 57.213857153982495 a86.0,86.0 0 0,1 29.58750427330803,-30.492523968695096" fill="none" id="id23" stroke="none" /><text fill="#e1ed5e" style="font-size:6.75px; font-family:Arial;" text-anchor="middle"><textPath startOffset="21.46611528233685" xlink:href="#id23">November</textPath></text><path d="M 82.54541684631803 88.32363383020206 l -3.598614215290074 -2.407318290652121 a25.329573376557562,25.329573376557562 0 0,0 0.24554673497693114,-0.36030953470296784 l 3.556643014644403 2.4689058486255044" fill="#ff2703" stroke="none" /><path d="M 85.57189188830299 84.74124197986013 l -11.68690521717173 -12.359739567557128 a38.010200343705336,38.010200343705336 0 0,0 0.47927625649482014,-0.44543504699855907 l 11.472421076882053 12.559079200630334" fill="#ffd313" stroke="none" /><path d="M 87.51073957382395 83.11751280151077 l -24.090492896610858 -32.56457340579727 a61.50683015373107,61.50683015373107 0 0,0 0.8565695502233858,-0.6223342064317154 l 23.52637803003369 32.97442684704565" fill="#31ff3d" stroke="none" /><line stroke="#e1ed5e" stroke-width="0.3" x1="56.762969772571076" x2="54.21961505331055" y1="26.818313649435495" y2="22.513508569990535" /><path d="M 56.25429882871897 25.957352633546506 a86.0,86.0 0 0,1 42.265352541879196,-11.944610805530505" fill="none" id="id24" stroke="none" /><text fill="#e1ed5e" style="font-size:6.75px; font-family:Arial;" text-anchor="middle"><textPath startOffset="22.20632615414155" xlink:href="#id24">December</textPath></text><path d="M 89.63071344664047 81.73862282372117 l -31.107859660078574 -54.78413152883649 a84.0,84.0 0 0,0 1.2635036437118177,-0.7031384097592617 l 30.16023192729471 55.31148533615593" fill="#4dd2ff" stroke="none" /><path d="M 91.90106846888425 80.62456947434976 l -5.68994628752581 -13.612309051518775 a35.75365874856094,35.75365874856094 0 0,0 0.5698726811607554,-0.23246537529634814 l 5.454789736776674 13.7082353129987" fill="#ffb610" stroke="none" /><path d="M 92.23578459929587 80.48803036053334 l -4.056006717733077 -10.193004167131086 a31.970347507961975,31.970347507961975 0 0,0 0.5130735871901824,-0.1990645807533597 l 3.879949965543218 10.261311451774997" fill="#ff840c" stroke="none" /><path d="M 94.28887869178378 79.79150937346287 l -3.696505040686009 -13.079881066119738 a34.59218298212817,34.59218298212817 0 0,0 0.5743984391536818,-0.15700479144744633 l 3.4708087123086044 13.14157239839348" fill="#ffa70f" stroke="none" /><path d="M 94.63758080256005 79.69619591428918 l -1.2819492143142945 -4.85386254541504 a26.02029634562184,26.02029634562184 0 0,0 0.4340323106501678,-0.1106445001172528 l 1.1982080149791272 4.875210041701156" fill="#ff3104" stroke="none" /><path d="M 95.33964822691252 79.52364482259891 l -1.1088475168770935 -4.871983210424574 a25.99657514887382,25.99657514887382 0 0,0 0.4371847457578359,-0.09555165224902162 l 1.0248200469657367 4.890348360769464" fill="#ff3104" stroke="none" /><path d="M 96.40284397218896 79.31037775812273 l -1.1291076645550742 -6.494244583621369 a27.591668743956458,27.591668743956458 0 0,0 0.4686258283266593,-0.07732727701493931 l 1.0171526300895293 6.512718123575936" fill="#ff4706" stroke="none" /><path d="M 97.11714578562143 79.19881850522333 l -3.066930781678246 -22.12938257627377 a43.34089607931371,43.34089607931371 0 0,0 0.7398606141764523,-0.09605514186191207 l 2.685555438993936 22.17889604129982" fill="#e9ff1a" stroke="none" /><path d="M 97.47563105711357 79.15227682838746 l -0.9039319440398069 -7.46520154608292 a28.51972918947846,28.51972918947846 0 0,0 0.48786839674983173,-0.0548176988576209 l 0.7752968437802572 7.479655198411138" fill="#ff5407" stroke="none" /><path d="M 97.83486435360386 79.11191278185805 l -0.7352404898902482 -7.093212614507468 a28.131216149618655,28.131216149618655 0 0,0 0.4820818017448145,-0.04577947590661795 l 0.6130335610551972 7.104817634929267" fill="#ff4f07" stroke="none" /><path d="M 98.55514903715128 79.0497635885617 l -0.38277145233742993 -5.550158891272719 a26.563342314031928,26.563342314031928 0 0,0 0.45643152459842995,-0.027533196024201956 l 0.28717787889937696 5.5559253566772275" fill="#ff3905" stroke="none" /></svg>