<?xml version="1.0" encoding="utf-8" ?>
<svg baseProfile="full" height="200mm" version="1.1" viewBox="0,0,200,200" width="200mm" xmlns="http://www.w3.org/2000/svg" xmlns:ev="http://www.w3.org/2001/xml-events" xmlns:xlink="http://www.w3.org/1999/xlink"><defs /><rect fill="#1a1a1a" height="200" width="200" x="0" y="0" /><text alignment-baseline="middle" fill="#e1ed5e" style="dominant-baseline: central; font-size:9.0px; font-family:Arial;" text-anchor="middle" x="100.0" y="100.0">2019</text><line stroke="#e1ed5e" stroke-width="0.3" x1="100.0" x2="100.0" y1="15.0" y2="10.0" /><path d="M 100.0 14.0 a86.0,86.0 0 0,1 42.46469731375804,11.215312516191453" fill="none" id="id37" stroke="none" /><text fill="#e1ed5e" style="font-size:6.75px; font-family:Arial;" text-anchor="middle"><textPath startOffset="22.20632615414155" xlink:href="#id37">January</textPath></text><line stroke="#e1ed5e" stroke-width="0.3" x1="143.23703022742887" x2="145.7803849466894" y1="26.81831364943548" y2="22.513508569990506" /><path d="M 143.74570117128098 25.957352633546492 a86.0,86.0 0 0,1 28.547481713284135,27.462654790039103" fill="none" id="id38" stroke="none" /><text fill="#e1ed5e" style="font-size:6.75px; font-family:Arial;" text-anchor="middle"><textPath startOffset="19.985693538727396" xlink:href="#id38">February</textPath></text><path d="M 116.38621287248628 86.86637796730983 l 6.8872058093377015 -5.520125892729525 a29.82640321601942,29.82640321601942 0 0,0 0.3176453985629433,0.4033773987796701 l -6.98120528849461 5.4007560999968165" fill="#ff5407" stroke="none" /><line stroke="#e1ed5e" stroke-width="0.3" x1="172.23445277983987" x2="176.4835382374775" y1="55.19839476539836" y2="52.563006222186495" /><path d="M 173.08426987136738 54.67131705675599 a86.0,86.0 0 0,1 12.851231095245387,41.99856678651699" fill="none" id="id39" stroke="none" /><text fill="#e1ed5e" style="font-size:6.75px; font-family:Arial;" text-anchor="middle"><textPath startOffset="22.20632615414155" xlink:href="#id39">March</textPath></text><path d="M 119.47837535516314 92.15188598940014 l 8.891872439930708 -3.58266166473628 a30.586493628640778,30.586493628640778 0 0,0 0.19255865448612308,0.4900407722907114 l -8.952224644298532 3.4290718875497843" fill="#ff5f08" stroke="none" /><path d="M 120.18372546131832 94.20196356495316 l 9.194611626800596 -2.6412712222262447 a30.56646207524272,30.56646207524272 0 0,0 0.14091609075547784,0.5069501540609679 l -9.238714488122437 2.482609764746325" fill="#ff5f08" stroke="none" /><path d="M 120.67395015179393 96.31383870115 l 11.747025035870704 -2.0944922835702564 a32.93228792475728,32.93228792475728 0 0,0 0.09470093160267286,0.5589302590313437 l -11.7813378289936 1.891976236223075" fill="#ff800b" stroke="none" /><line stroke="#e1ed5e" stroke-width="0.3" x1="184.98032266829074" x2="189.97916517819016" y1="98.17113171792111" y2="98.06355123074" /><path d="M 185.9800911702706 98.14961562048488 a86.0,86.0 0 0,1 -9.607161424134198,41.387399972396054" fill="none" id="id40" stroke="none" /><text fill="#e1ed5e" style="font-size:6.75px; font-family:Arial;" text-anchor="middle"><textPath startOffset="21.466115282336823" xlink:href="#id40">April</textPath></text><path d="M 120.99980553446 99.90962569577887 l 9.57417195875292 -0.041203197231797564 a30.574260618932037,30.574260618932037 0 0,0 -0.0022649742912530402,0.5263002583178227 l -9.573462687172166 -0.1236065392897098" fill="#ff5f08" stroke="none" /><path d="M 120.9764740272857 100.99374915477107 l 23.628795153875956 1.1194014390540177 a44.6552958131068,44.6552958131068 0 0,0 -0.04298316574189156,0.7674932987789806 l -23.606025637246532 -1.5259664541684217" fill="#e5ff1a" stroke="none" /><path d="M 120.64145759157962 103.86396538481128 l 20.536985262834865 3.8444087493290535 a41.89371298543689,41.89371298543689 0 0,0 -0.13878802001405405,0.7076771239875772 l -20.467767309845147 -4.197349600384576" fill="#fff717" stroke="none" /><path d="M 120.41448212921028 104.9243191809786 l 5.104444296296256 1.2312785010853877 a26.2508473907767,26.2508473907767 0 0,0 -0.10973939957510559,0.4383543510558522 l -5.082493582426089 -1.3189606915386358" fill="#ff2003" stroke="none" /><line stroke="#e1ed5e" stroke-width="0.3" x1="174.80103733775053" x2="179.2010983576182" y1="140.37084112569926" y2="142.7455964860345" /><path d="M 175.68104954172406 140.8457921977663 a86.0,86.0 0 0,1 -30.038265399797805,32.042727171017184" fill="none" id="id41" stroke="none" /><text fill="#e1ed5e" style="font-size:6.75px; font-family:Arial;" text-anchor="middle"><textPath startOffset="22.206326154141568" xlink:href="#id41">May</textPath></text><path d="M 118.30583269289576 110.29060199501025 l 5.026467303667472 2.8256225942154574 a26.76623938106796,26.76623938106796 0 0,0 -0.22923117729488765,0.39968387956707274 l -4.977084130220205 -2.911726319640845" fill="#ff2703" stroke="none" /><path d="M 118.12598468904814 110.60418214915192 l 2.700518746794479 1.5798751449630608 a24.12870691747573,24.12870691747573 0 0,0 -0.21281418884709438,0.35668882155700193 l -2.672923682249157 -1.626126060406167" fill="#ff0000" stroke="none" /><path d="M 116.498646956653 112.99209946851258 l 15.621270335712081 12.301196489585848 a40.883247269417474,40.883247269417474 0 0,0 -0.4401414240308378,0.5491441013162224 l -15.40721099962639 -12.568268424480321" fill="#ffea16" stroke="none" /><path d="M 116.27256486870786 113.27417163493432 l 25.249856506679773 20.597301761055768 a53.585335558252424,53.585335558252424 0 0,0 -0.5891937298784395,0.7097218033004336 l -24.89156677690779 -21.02888482146997" fill="#7dff26" stroke="none" /><path d="M 114.29624159901734 115.38237550388516 l 6.583835651733863 7.084031949893596 a30.671111650485436,30.671111650485436 0 0,0 -0.3898158818031753,0.3560875655818513 l -6.460920220463824 -7.19631228206203" fill="#ff6008" stroke="none" /><path d="M 113.48314897796784 116.09983520530334 l 13.115266821539239 15.660557844862518 a41.42702366504854,41.42702366504854 0 0,0 -0.5506437995429065,0.4531423593848016 l -12.843752893451642 -15.883995323104498" fill="#fff116" stroke="none" /><line stroke="#e1ed5e" stroke-width="0.3" x1="143.8653032363475" x2="146.44561519142675" y1="172.8068346515853" y2="177.08958963109032" /><path d="M 144.38136562736335 173.6633856474863 a86.0,86.0 0 0,1 -40.68145358897372,12.25698825130547" fill="none" id="id42" stroke="none" /><text fill="#e1ed5e" style="font-size:6.75px; font-family:Arial;" text-anchor="middle"><textPath startOffset="21.466115282336833" xlink:href="#id42">June</textPath></text><path d="M 109.89434966115114 118.52300852407294 l 4.1242867452859 7.720992400198214 a29.753483009708738,29.753483009708738 0 0,0 -0.4538243471206216,0.23741944935025666 l -3.990771495638783 -7.790841268493187" fill="#ff5307" stroke="none" /><path d="M 106.2309692047433 120.05430185196036 l 2.926665062271603 9.419437434179871 a30.863628640776696,30.863628640776696 0 0,0 -0.5086987739121712,0.1532667676600645 l -2.764091313919186 -9.468419570945661" fill="#ff6309" stroke="none" /><path d="M 103.41894727170886 120.7198165907248 l 2.012740275206395 12.197792487801994 a33.3627369538835,33.3627369538835 0 0,0 -0.5674272919900005,0.08862047327718504 l -1.8024771196078773 -12.230631268426285" fill="#ff860c" stroke="none" /><path d="M 100.90346689309514 120.98055641714683 l 0.5365220053378832 12.459261416286127 a33.47080794902912,33.47080794902912 0 0,0 -0.5758248440471664,0.019832571911965326 l -0.3219768096160645 -12.466650786624186" fill="#ff870c" stroke="none" /><line stroke="#e1ed5e" stroke-width="0.3" x1="102.19456741930631" x2="102.32365962044197" y1="184.97166512339345" y2="189.96999836594603" /><path d="M 102.22038585953345 185.97133177190398 a86.0,86.0 0 0,1 -42.740103519485714,-10.115201625700543" fill="none" id="id43" stroke="none" /><text fill="#e1ed5e" style="font-size:6.75px; font-family:Arial;" text-anchor="middle"><textPath startOffset="22.20632615414155" xlink:href="#id43">July</textPath></text><path d="M 93.42475214034765 119.94407469862007 l -2.370488568780929 7.190177784490618 a28.570856796116505,28.570856796116505 0 0,0 -0.46574614462984953,-0.15800637952678254 l 2.4939044463480045 -7.148308418065713" fill="#ff4206" stroke="none" /><path d="M 91.07499286063937 119.00905698771935 l -4.071842251414934 8.672472771567422 a30.580797633495145,30.580797633495145 0 0,0 -0.4745664072002021,-0.22782071480917232 l 4.220521326615379 -8.601097780258687" fill="#ff5f08" stroke="none" /><line stroke="#e1ed5e" stroke-width="0.3" x1="58.666819895761336" x2="56.23545636021788" y1="174.27360380694188" y2="178.64263932499728" /><path d="M 58.180547188652646 175.14741091055294 a86.0,86.0 0 0,1 -31.652253787137756,-30.449443065178592" fill="none" id="id44" stroke="none" /><text fill="#e1ed5e" style="font-size:6.75px; font-family:Arial;" text-anchor="middle"><textPath startOffset="22.20632615414155" xlink:href="#id44">August</textPath></text><path d="M 88.54995079064634 117.60387380957326 l -5.43323246774126 8.353321194642486 a30.964837682038837,30.964837682038837 0 0,0 -0.4443090020480255,-0.2944637791280604 l 5.576216168529248 -8.258559394423107" fill="#ff6409" stroke="none" /><path d="M 87.07902340077011 116.55440617244103 l -5.902467542934913 7.562264692222909 a30.593068871359225,30.593068871359225 0 0,0 -0.4123399485152409,-0.3275877931273345 l 6.031764984167512 -7.459542985090444" fill="#ff5f08" stroke="none" /><path d="M 86.79598089348748 116.32954008644616 l -5.4821236524163774 6.779796152887593 a29.718905643203883,29.718905643203883 0 0,0 -0.39502068152285824,-0.325075128022229 l 5.598014462483925 -6.684425906008184" fill="#ff5207" stroke="none" /><line stroke="#e1ed5e" stroke-width="0.3" x1="26.63291911575756" x2="22.317208475507996" y1="142.92168965132927" y2="145.44649492493687" /><path d="M 25.769776987707644 143.4266507060508 a86.0,86.0 0 0,1 -11.730757126820373,-40.83630448921669" fill="none" id="id45" stroke="none" /><text fill="#e1ed5e" style="font-size:6.75px; font-family:Arial;" text-anchor="middle"><textPath startOffset="21.46611528233685" xlink:href="#id45">September</textPath></text><path d="M 80.45479744820244 107.68017299344265 l -8.90672389695284 3.4998450464836095 a30.569673240291262,30.569673240291262 0 0,0 -0.18823017242508994,-0.4914095835968279 l 8.96564834897144 -3.3460118960536236" fill="#ff5f08" stroke="none" /><path d="M 79.50377843672027 104.57218783832718 l -8.958428325664489 1.9983984323486528 a30.178618325242716,30.178618325242716 0 0,0 -0.10873781740703324,-0.5079868822422579 l 8.991500181795963 -1.843897730690231" fill="#ff5908" stroke="none" /><path d="M 79.35854240842038 103.8639653848113 l -13.495868444408156 2.5263510716623525 a34.73029186893204,34.73029186893204 0 0,0 -0.10494097988962309,-0.588564745605507 l 13.537355866636968 -2.293667575323632" fill="#ff990e" stroke="none" /><line stroke="#e1ed5e" stroke-width="0.3" x1="15.007084014347285" x2="10.007500721073583" y1="101.09737516637583" y2="101.16192664675087" /><path d="M 14.007167355692545 101.11028546245083 a86.0,86.0 0 0,1 10.666146001902534,-42.60595125391555" fill="none" id="id46" stroke="none" /><text fill="#e1ed5e" style="font-size:6.75px; font-family:Arial;" text-anchor="middle"><textPath startOffset="22.20632615414155" xlink:href="#id46">October</textPath></text><path d="M 79.01574976396665 99.18683210126434 l -38.23537306880481 -1.481672093403852 a59.26407069174758,59.26407069174758 0 0,0 0.048275924330031215,-1.0190284620523282 l 38.20420353624128 2.139611662079189" fill="#40ff2d" stroke="none" /><path d="M 79.3925641242962 95.95851677861259 l -10.017502161299118 -1.9646096268015107 a31.20833191747573,31.20833191747573 0 0,0 0.1079224303412207,-0.5262680982148017 l 9.982200435042904 2.136753381179715" fill="#ff6809" stroke="none" /><path d="M 81.10775173730289 90.83032412892265 l -11.810876475934368 -5.732610938185335 a34.12858070388349,34.12858070388349 0 0,0 0.26106736962810717,-0.5262958866234301 l 11.710449093352848 5.935066413307727" fill="#ff900d" stroke="none" /><line stroke="#e1ed5e" stroke-width="0.3" x1="26.266209847984243" x2="21.928928074336255" y1="57.711370442889674" y2="55.22380399835377" /><path d="M 25.398753493254645 57.213857153982495 a86.0,86.0 0 0,1 29.58750427330803,-30.492523968695096" fill="none" id="id47" stroke="none" /><text fill="#e1ed5e" style="font-size:6.75px; font-family:Arial;" text-anchor="middle"><textPath startOffset="21.46611528233685" xlink:href="#id47">November</textPath></text><path d="M 81.96595687620814 89.24020034530311 l -54.1021293713756 -32.27939896409068 a84.0,84.0 0 0,0 0.7515368068551322,-1.2353289071717022 l 53.53847676623425 33.20589564446946" fill="#4dd2ff" stroke="none" /><path d="M 83.17141714833178 87.43820079747576 l -4.966887811494446 -3.7075639642035125 a27.198064623786408,27.198064623786408 0 0,0 0.28327957678864807,-0.37276271739511463 l 4.902332294481689 3.792511457479654" fill="#ff2e04" stroke="none" /><line stroke="#e1ed5e" stroke-width="0.3" x1="56.762969772571076" x2="54.21961505331055" y1="26.818313649435495" y2="22.513508569990535" /><path d="M 56.25429882871897 25.957352633546506 a86.0,86.0 0 0,1 42.265352541879196,-11.944610805530505" fill="none" id="id48" stroke="none" /><text fill="#e1ed5e" style="font-size:6.75px; font-family:Arial;" text-anchor="middle"><textPath startOffset="22.20632615414155" xlink:href="#id48">December</textPath></text><path d="M 93.94186890950719 79.89281104454417 l -1.7800869788405018 -5.908182689685056 a27.17052123786408,27.17052123786408 0 0,0 0.4489731742424939,-0.13106758121645784 l 1.6781235868745865 5.937948599820213" fill="#ff2d04" stroke="none" /><path d="M 94.28887869178378 79.79150937346287 l -2.881056236307475 -10.194460037503653 a31.59374817961165,31.59374817961165 0 0,0 0.524609841788798,-0.14339568701246197 l 2.7051485052949547 10.242542265342411" fill="#ff6d0a" stroke="none" /><path d="M 96.40284397218896 79.31037775812273 l -9.673748979734535 -55.640125283986514 a77.47481705097087,77.47481705097087 0 0,0 1.315857357229256,-0.21712773864373058 l 8.714562416366393 55.79839928556987" fill="#45ffec" stroke="none" /></svg>