<?xml version="1.0" encoding="utf-8" ?>
<svg baseProfile="full" height="200mm" version="1.1" viewBox="0,0,200,200" width="200mm" xmlns="http://www.w3.org/2000/svg" xmlns:ev="http://www.w3.org/2001/xml-events" xmlns:xlink="http://www.w3.org/1999/xlink"><defs /><rect fill="#1a1a1a" height="200" width="200" x="0" y="0" /><text alignment-baseline="middle" fill="#e1ed5e" style="dominant-baseline: central; font-size:9.0px; font-family:Arial;" text-anchor="middle" x="100.0" y="100.0">2018</text><line stroke="#e1ed5e" stroke-width="0.3" x1="100.0" x2="100.0" y1="15.0" y2="10.0" /><path d="M 100.0 14.0 a86.0,86.0 0 0,1 42.46469731375804,11.215312516191453" fill="none" id="id25" stroke="none" /><text fill="#e1ed5e" style="font-size:6.75px; font-family:Arial;" text-anchor="middle"><textPath startOffset="22.20632615414155" xlink:href="#id25">January</textPath></text><path d="M 101.80526077348638 79.07773832637324 l 0.6314497855380433 -7.318254426626829 a28.345445982682005,28.345445982682005 0 0,0 0.4857530366946683,0.04612810390155175 l -0.7573279493229558 7.306300778210098" fill="#ff3b05" stroke="none" /><path d="M 102.16513564639614 79.11191278185805 l 0.9329516400728074 -9.000625554609679 a30.048848497848073,30.048848497848073 0 0,0 0.5140260429342287,0.0577568151867622 l -1.0877443865167613 8.983232785952316" fill="#ff5407" stroke="none" /><path d="M 102.52436894288641 79.15227682838746 l 1.1175103936340083 -9.229057976463123 a30.296469255195632,30.296469255195632 0 0,0 0.517182762200119,0.06714516577823729 l -1.2762078843419735 9.208454487520749" fill="#ff5808" stroke="none" /><path d="M 103.2404852339499 79.25152402106235 l 0.8626389696193024 -5.523383890820814 a26.590341277353712,26.590341277353712 0 0,0 0.45161895868723734,0.07452099780395334 l -0.957587134445415 5.507716630077237" fill="#ff2103" stroke="none" /><path d="M 104.307194497241 79.44645832069477 l 5.158251116487983 -24.614706715234323 a46.14938053427462,46.14938053427462 0 0,0 0.7760947386422204,0.16962424992777062 l -5.581188579283731 24.52226896721068" fill="#d4ff1c" stroke="none" /><path d="M 104.66035177308747 79.52364482259891 l 1.586810891585371 -6.972028078031669 a28.150324770702092,28.150324770702092 0 0,0 0.4715532123164346,0.11160141008205303 l -1.706587790864329 6.943680755808747" fill="#ff3905" stroke="none" /><path d="M 105.71112130821622 79.79150937346287 l 1.6949865496923535 -5.997617272161022 a27.232526963195763,27.232526963195763 0 0,0 0.44999777392092677,0.1313666899589617 l -1.7979745413367074 5.9675522532833565" fill="#ff2b04" stroke="none" /><path d="M 106.40334571778207 80.00007090966166 l 1.5917691537427525 -4.971661941449839 a26.220263546878424,26.220263546878424 0 0,0 0.4286603276654439,0.14132257046726088 l -1.6771123036506137 4.943525646723343" fill="#ff1c02" stroke="none" /><path d="M 106.74666289553966 80.11325718540242 l 8.296004523442296 -24.4536463286919 a46.82255815796959,46.82255815796959 0 0,0 0.7610181769099522,0.26550429894027217 l -8.71570470441552 24.307221176579418" fill="#ccff1d" stroke="none" /><path d="M 107.4271985657038 80.35727306442388 l 2.6058495319121646 -6.891695480838284 a28.367897826624205,28.367897826624205 0 0,0 0.45525995910198636,0.17663379124374357 l -2.724092656013818 6.845818985703994" fill="#ff3c05" stroke="none" /><path d="M 107.76421540070413 80.48803036053334 l 2.190819493815314 -5.5056694389235235 a26.925545209107568,26.925545209107568 0 0,0 0.42916258579121036,0.17506619437502474 l -2.2852659491949114 5.46714235836492" fill="#ff2603" stroke="none" /><path d="M 109.41281617654863 81.2277094730956 l 2.912840716765034 -5.809174551814026 a27.498549839363235,27.498549839363235 0 0,0 0.4213033341587158,0.21580793126637138 l -3.012404538512506 5.758174095235154" fill="#ff2f04" stroke="none" /><line stroke="#e1ed5e" stroke-width="0.3" x1="143.23703022742887" x2="145.7803849466894" y1="26.81831364943548" y2="22.513508569990506" /><path d="M 143.74570117128098 25.957352633546492 a86.0,86.0 0 0,1 28.547481713284135,27.462654790039103" fill="none" id="id26" stroke="none" /><text fill="#e1ed5e" style="font-size:6.75px; font-family:Arial;" text-anchor="middle"><textPath startOffset="19.985693538727396" xlink:href="#id26">February</textPath></text><path d="M 116.15771136456269 86.58626213691792 l 5.001420606075036 -4.152057394715277 a27.500291430996135,27.500291430996135 0 0,0 0.29923133620575376,0.36682223667679575 l -5.072150434357199 4.06535098843038" fill="#ff2f04" stroke="none" /><path d="M 116.60985879189232 87.15038557335679 l 16.726852614131715 -12.940122451118967 a42.14791638495004,42.14791638495004 0 0,0 0.4389887325148037,0.5776577143086596 l -16.947117286870633 12.650279960929273" fill="#fff817" stroke="none" /><line stroke="#e1ed5e" stroke-width="0.3" x1="172.23445277983987" x2="176.4835382374775" y1="55.19839476539836" y2="52.563006222186495" /><path d="M 173.08426987136738 54.67131705675599 a86.0,86.0 0 0,1 12.851231095245387,41.99856678651699" fill="none" id="id27" stroke="none" /><text fill="#e1ed5e" style="font-size:6.75px; font-family:Arial;" text-anchor="middle"><textPath startOffset="22.20632615414155" xlink:href="#id27">March</textPath></text><path d="M 118.73160827565052 90.50648371742162 l 7.0369071775585095 -3.5664312367659967 a28.889074368527318,28.889074368527318 0 0,0 0.2209876443975361,0.445497606256587 l -7.097254834909454 3.44477404201046" fill="#ff4306" stroke="none" /><path d="M 119.34039704204932 91.81776055985345 l 7.828077728270414 -3.3117834235527175 a29.499806489818567,29.499806489818567 0 0,0 0.19382540650708438,0.4693635959502412 l -7.883924821663696 3.176545257149173" fill="#ff4c07" stroke="none" /><path d="M 119.61058180528143 92.48833698450437 l 6.100115703896831 -2.3365963324385093 a27.53231153740342,27.53231153740342 0 0,0 0.1657122783938836,0.44402651913423263 l -6.13943257079234 2.231246676274943" fill="#ff2f04" stroke="none" /><path d="M 120.91429891909075 98.10471618934814 l 16.651925921857313 -1.5090214469040566 a37.720160963167785,37.720160963167785 0 0,0 0.053033677278536806,0.6471451921767694 l -16.67543408295534 1.2221623375195185" fill="#ffbe11" stroke="none" /><line stroke="#e1ed5e" stroke-width="0.3" x1="184.98032266829074" x2="189.97916517819016" y1="98.17113171792111" y2="98.06355123074" /><path d="M 185.9800911702706 98.14961562048488 a86.0,86.0 0 0,1 -9.607161424134198,41.387399972396054" fill="none" id="id28" stroke="none" /><text fill="#e1ed5e" style="font-size:6.75px; font-family:Arial;" text-anchor="middle"><textPath startOffset="21.466115282336823" xlink:href="#id28">April</textPath></text><path d="M 120.99824983174949 100.27111621757518 l 10.700328425772947 0.13815592217697192 a31.701220279867016,31.701220279867016 0 0,0 -0.011741433530741717,0.5455782790964231 l -10.696364929557197 -0.3223240170635099" fill="#ff6c09" stroke="none" /><path d="M 120.95626037817324 101.35467743843564 l 5.535436845270154 0.35782774554486163 a26.54699033381672,26.54699033381672 0 0,0 -0.03340299246304766,0.45575729335721427 l -5.528457294142769 -0.45305817539884613" fill="#ff2103" stroke="none" /><path d="M 120.8583938346157 102.4346265915055 l 10.603779550506438 1.2376908725005358 a31.675767862388618,31.675767862388618 0 0,0 -0.0678743689168895,0.5410255024548911 l -10.5809036723427 -1.4200341292428218" fill="#ff6b09" stroke="none" /><path d="M 120.49622156327973 104.57218783832717 l 10.310259724232322 2.2999577739530537 a31.563676506931394,31.563676506931394 0 0,0 -0.12285700261084177,0.5292647517810147 l -10.269142155690927 -2.4770911830826337" fill="#ff6a09" stroke="none" /><path d="M 120.02730092923936 106.31721596034902 l 10.292778887663227 3.2466535203732567 a31.79268531514182,31.79268531514182 0 0,0 -0.16911853860491968,0.5204933420955026 l -10.23536809804206 -3.4233457624465546" fill="#ff6d0a" stroke="none" /><line stroke="#e1ed5e" stroke-width="0.3" x1="174.80103733775053" x2="179.2010983576182" y1="140.37084112569926" y2="142.7455964860345" /><path d="M 175.68104954172406 140.8457921977663 a86.0,86.0 0 0,1 -30.038265399797805,32.042727171017184" fill="none" id="id29" stroke="none" /><text fill="#e1ed5e" style="font-size:6.75px; font-family:Arial;" text-anchor="middle"><textPath startOffset="22.206326154141568" xlink:href="#id29">May</textPath></text><path d="M 118.12598468904814 110.60418214915192 l 5.280415118353677 3.0891829988133184 a27.11766584755128,27.11766584755128 0 0,0 -0.23917668197102568,0.4008738764004821 l -5.226457560684423 -3.1796189690999044" fill="#ff2904" stroke="none" /><path d="M 117.55443506779139 111.5257021239791 l 21.616657770267743 14.192832604065723 a46.85955124289491,46.85955124289491 0 0,0 -0.4485059181747173,0.6704554935891106 l -21.369148746682303 -14.56282501186064" fill="#ccff1d" stroke="none" /><path d="M 114.29624159901734 115.38237550388516 l 7.164214883627539 7.708504558153002 a31.52364088240643,31.52364088240643 0 0,0 -0.40065114066471724,0.3659853176503619 l -7.030464193495958 -7.830682642389947" fill="#ff6909" stroke="none" /><path d="M 114.0293411484842 115.62618273729858 l 3.3730404604448867 3.75696521008104 a26.048979058934343,26.048979058934343 0 0,0 -0.3362273796619196,0.29668157006454077 l -3.3078707278763795 -3.814469921917869" fill="#ff1902" stroke="none" /><path d="M 113.20401910651253 116.32954008644616 l 6.838100155227476 8.456745608982494 a31.875484358315575,31.875484358315575 0 0,0 -0.42962461969649984,0.3413197812783453 l -6.691518042813625 -8.573199304265966" fill="#ff6e0a" stroke="none" /><path d="M 111.7513745106137 117.40417183066458 l 5.914572445404111 8.75967615973387 a31.5694888067183,31.5694888067183 0 0,0 -0.4529850345385582,0.30021378037319607 l -5.762912712125588 -8.860187961198383" fill="#ff6a09" stroke="none" /><path d="M 111.45004920935366 117.60387380957326 l 3.721462584075573 5.721561236924399 a27.825360558428418,27.825360558428418 0 0,0 -0.4037568441313678,0.2576967210185434 l -3.622423937897275 -5.78477238676675" fill="#ff3404" stroke="none" /><line stroke="#e1ed5e" stroke-width="0.3" x1="143.8653032363475" x2="146.44561519142675" y1="172.8068346515853" y2="177.08958963109032" /><path d="M 144.38136562736335 173.6633856474863 a86.0,86.0 0 0,1 -40.68145358897372,12.25698825130547" fill="none" id="id30" stroke="none" /><text fill="#e1ed5e" style="font-size:6.75px; font-family:Arial;" text-anchor="middle"><textPath startOffset="21.466115282336833" xlink:href="#id30">June</textPath></text><path d="M 110.21172684928248 118.3499491758327 l 5.132817606120011 9.223409868991878 a31.555430175464775,31.555430175464775 0 0,0 -0.4769035094935335,0.2600458180764764 l -4.973291284757829 -9.310396338828124" fill="#ff6a09" stroke="none" /><path d="M 108.2653958097858 119.30500536409082 l 4.236069515935923 9.89394175545525 a31.762637613716375,31.762637613716375 0 0,0 -0.5044641031339937,0.21086603602325954 l -4.065133953304469 -9.965392834498482" fill="#ff6d0a" stroke="none" /><path d="M 107.2578585660854 119.70592522655815 l 3.2106898608126784 8.7173942212776 a30.2898596002033,30.2898596002033 0 0,0 -0.49081174920099163,0.17598763101786546 l -3.060158550981952 -8.771369393335425" fill="#ff5808" stroke="none" /><path d="M 106.91757812671514 119.82793768551818 l 2.896337508417098 8.301807161575711 a29.79254076536774,29.79254076536774 0 0,0 -0.4856613541279472,0.1647626998669389 l -2.7530064213519236 -8.350432848340771" fill="#ff5007" stroke="none" /><path d="M 104.13013068566511 120.58985236759428 l 1.0348636219365757 5.159083529783428 a26.261851915750796,26.261851915750796 0 0,0 -0.44399085387684095,0.08509190385263493 l -0.9459051534880302 -5.176132631984531" fill="#ff1d02" stroke="none" /><path d="M 101.26447882468166 120.96189622390904 l 0.5531604741912061 9.170017108102645 a30.186686033227794,30.186686033227794 0 0,0 -0.5189406587167334,0.02682330450422723 l -0.395231747060993 -9.178180219369073" fill="#ff5608" stroke="none" /><line stroke="#e1ed5e" stroke-width="0.3" x1="102.19456741930631" x2="102.32365962044197" y1="184.97166512339345" y2="189.96999836594603" /><path d="M 102.22038585953345 185.97133177190398 a86.0,86.0 0 0,1 -42.740103519485714,-10.115201625700543" fill="none" id="id31" stroke="none" /><text fill="#e1ed5e" style="font-size:6.75px; font-family:Arial;" text-anchor="middle"><textPath startOffset="22.20632615414155" xlink:href="#id31">July</textPath></text><path d="M 99.45781275523022 120.99299961872073 l -0.1409100374887935 5.4559091749423665 a26.45772851687269,26.45772851687269 0 0,0 -0.4551732787649302,-0.015677088053482554 l 0.23480366792836674 -5.452675288462791" fill="#ff1f03" stroke="none" /><path d="M 98.37488393609728 120.93702456842531 l -0.8130738600213597 10.47515790492528 a31.50666560974359,31.50666560974359 0 0,0 -0.5403478403983956,-0.046623485334709676 l 0.993266018161297 -10.459610167311906" fill="#ff6909" stroke="none" /><path d="M 97.65516085044442 120.86867818915974 l -1.1810666019031495 10.511296196906581 a31.57744137574082,31.57744137574082 0 0,0 -0.539632274283609,-0.06534195329471991 l 1.3618262992381478 -10.489408714886514" fill="#ff6a09" stroke="none" /><path d="M 95.16358092515715 120.4354850818985 l -1.455866481887512 6.151521882502502 a27.321453051632247,27.321453051632247 0 0,0 -0.45671934999133745,-0.11225050430129223 l 1.56153911662206 -6.12555011988718" fill="#ff2c04" stroke="none" /><path d="M 90.7491055286396 118.85261126421891 l -3.1726189182398112 6.465553286793272 a28.202005977832595,28.202005977832595 0 0,0 -0.43396990605923963,-0.21760151996557067 l 3.2834427319818116 -6.409983925918399" fill="#ff3905" stroke="none" /><line stroke="#e1ed5e" stroke-width="0.3" x1="58.666819895761336" x2="56.23545636021788" y1="174.27360380694188" y2="178.64263932499728" /><path d="M 58.180547188652646 175.14741091055294 a86.0,86.0 0 0,1 -31.652253787137756,-30.449443065178592" fill="none" id="id32" stroke="none" /><text fill="#e1ed5e" style="font-size:6.75px; font-family:Arial;" text-anchor="middle"><textPath startOffset="22.20632615414155" xlink:href="#id32">August</textPath></text><path d="M 89.4739219176387 118.17145234162733 l -31.57823424708386 54.51435702488198 a84.0,84.0 0 0,0 -1.2449285158864716,-0.735525710825002 l 32.511930633998716 -53.962712741763234" fill="#4dd2ff" stroke="none" /><path d="M 87.07902340077011 116.55440617244103 l -6.508382085697538 8.338564793817337 a31.57784005334353,31.57784005334353 0 0,0 -0.4256129058699327,-0.33813263318892267 l 6.650952484284829 -8.225298246623284" fill="#ff6a09" stroke="none" /><path d="M 85.97065885151581 115.62618273729859 l -14.036438931811587 15.634088401444162 a42.010624408395074,42.010624408395074 0 0,0 -0.5339359324656857,-0.48773781480863176 l 14.303474413744128 -15.390157820048953" fill="#fff617" stroke="none" /><path d="M 83.95833913139862 113.55231037782056 l -9.582917980561747 8.095837448600369 a33.544915345124245,33.544915345124245 0 0,0 -0.36884072078199437,-0.4442924087770553 l 9.720854701237277 -7.929683782709553" fill="#ff860c" stroke="none" /><path d="M 83.28015986056508 112.70617746262583 l -8.388916690318945 6.375124600322809 a31.53641954872493,31.53641954872493 0 0,0 -0.32473311505660174,-0.4350330747455473 l 8.497411072070634 -6.229778646067953" fill="#ff6909" stroke="none" /><path d="M 82.6465618267979 111.8261652097733 l -5.2751706407751 3.5949671116983364 a27.38366774068703,27.38366774068703 0 0,0 -0.2620967703972597,-0.39179910998711154 l 5.33627051658309 -3.5036310875054038" fill="#ff2d04" stroke="none" /><line stroke="#e1ed5e" stroke-width="0.3" x1="26.63291911575756" x2="22.317208475507996" y1="142.92168965132927" y2="145.44649492493687" /><path d="M 25.769776987707644 143.4266507060508 a86.0,86.0 0 0,1 -11.730757126820373,-40.83630448921669" fill="none" id="id33" stroke="none" /><text fill="#e1ed5e" style="font-size:6.75px; font-family:Arial;" text-anchor="middle"><textPath startOffset="21.46611528233685" xlink:href="#id33">September</textPath></text><path d="M 81.69416730710424 110.29060199501025 l -7.649130576915543 4.299949622365382 a29.774894035689805,29.774894035689805 0 0,0 -0.2473068536145543,-0.4489337744419156 l 7.722013839981614 -4.167645329525644" fill="#ff5007" stroke="none" /><path d="M 81.35079622478065 109.6543875284942 l -8.434107634217815 4.366199465629059 a30.4972558857404,30.4972558857404 0 0,0 -0.23732867260553825,-0.4682719864277378 l 8.50801497660962 -4.220373267498636" fill="#ff5b08" stroke="none" /><path d="M 80.58989483394504 108.01547362559985 l -46.961749298345374 19.393025421171682 a71.80841792603715,71.80841792603715 0 0,0 -0.4619585493390738,-1.1465432345146802 l 47.288610461941836 -18.581782818814194" fill="#3dffaf" stroke="none" /><path d="M 79.86692584326677 105.97154293290107 l -10.14094243951227 3.007840366860896 a31.57760923999459,31.57760923999459 0 0,0 -0.15007990055642167,-0.5224478224701484 l 10.191214976954795 -2.8328350688861517" fill="#ff6a09" stroke="none" /><path d="M 79.67330655649465 105.27499134158121 l -3.2582952476108877 0.845561983174114 a24.366223846982408,24.366223846982408 0 0,0 -0.10186089367233278,-0.4068836362927674 l 3.272367455578279 -0.7893505074839547" fill="#ff0000" stroke="none" /><line stroke="#e1ed5e" stroke-width="0.3" x1="15.007084014347285" x2="10.007500721073583" y1="101.09737516637583" y2="101.16192664675087" /><path d="M 14.007167355692545 101.11028546245083 a86.0,86.0 0 0,1 10.666146001902534,-42.60595125391555" fill="none" id="id34" stroke="none" /><text fill="#e1ed5e" style="font-size:6.75px; font-family:Arial;" text-anchor="middle"><textPath startOffset="22.20632615414155" xlink:href="#id34">October</textPath></text><path d="M 79.00486145842228 99.54816195383935 l -21.913674891272088 -0.47160593998766626 a42.91874903827772,42.91874903827772 0 0,0 0.022252973957631303,-0.7384678696525976 l 21.90231022285881 0.8487439570652583" fill="#fcff18" stroke="none" /><path d="M 79.01574976396665 99.18683210126434 l -25.61924545332811 -0.9927801926752938 a46.63847402067528,46.63847402067528 0 0,0 0.03799123847568855,-0.8019349987103418 l 25.59836060661892 1.4336262980086447" fill="#ceff1d" stroke="none" /><path d="M 79.05617556472873 98.46500227214037 l -10.488563055633636 -0.768719223591104 a31.51669549890655,31.51669549890655 0 0,0 0.04431174775756899,-0.5407155601836325 l 10.47377682405657 0.9491487009825149" fill="#ff6909" stroke="none" /><path d="M 79.16333360222342 97.38593545837743 l -10.449431085107117 -1.3109336569606858 a31.531341655048287,31.531341655048287 0 0,0 0.07219776484995734,-0.5379572078617317 l 10.425317321199325 1.4906092068870769" fill="#ff6909" stroke="none" /><line stroke="#e1ed5e" stroke-width="0.3" x1="26.266209847984243" x2="21.928928074336255" y1="57.711370442889674" y2="55.22380399835377" /><path d="M 25.398753493254645 57.213857153982495 a86.0,86.0 0 0,1 29.58750427330803,-30.492523968695096" fill="none" id="id35" stroke="none" /><text fill="#e1ed5e" style="font-size:6.75px; font-family:Arial;" text-anchor="middle"><textPath startOffset="21.46611528233685" xlink:href="#id35">November</textPath></text><path d="M 82.34701348167596 88.62581576622439 l -26.872946764113806 -17.314795266069982 a52.96806848861554,52.96806848861554 0 0,0 0.5004306193682592,-0.7621901658692083 l 26.570919509387625 17.774803495916856" fill="#85ff25" stroke="none" /><path d="M 83.6137871275137 86.86637796730984 l -20.28118478084313 -16.255459230240415 a46.99166041061462,46.99166041061462 0 0,0 0.5113173935075965,-0.6268146655911583 l 19.998368895259144 16.602158065439657" fill="#caff1d" stroke="none" /><path d="M 87.22198572758235 83.33499621200491 l -15.014343177000221 -19.58160951964764 a45.675289915554956,45.675289915554956 0 0,0 0.6280436019674818,-0.4730294202925595 l 14.675053421274349 19.83715552944605" fill="#daff1c" stroke="none" /><line stroke="#e1ed5e" stroke-width="0.3" x1="56.762969772571076" x2="54.21961505331055" y1="26.818313649435495" y2="22.513508569990535" /><path d="M 56.25429882871897 25.957352633546506 a86.0,86.0 0 0,1 42.265352541879196,-11.944610805530505" fill="none" id="id36" stroke="none" /><text fill="#e1ed5e" style="font-size:6.75px; font-family:Arial;" text-anchor="middle"><textPath startOffset="22.20632615414155" xlink:href="#id36">December</textPath></text></svg>