<?xml version="1.0" encoding="utf-8" ?>
<svg baseProfile="full" height="200mm" version="1.1" viewBox="0,0,200,200" width="200mm" xmlns="http://www.w3.org/2000/svg" xmlns:ev="http://www.w3.org/2001/xml-events" xmlns:xlink="http://www.w3.org/1999/xlink"><defs /><rect fill="#1a1a1a" height="200" width="200" x="0" y="0" /><text alignment-baseline="middle" fill="#e1ed5e" style="dominant-baseline: central; font-size:9.0px; font-family:Arial;" text-anchor="middle" x="100.0" y="100.0">2024</text><line stroke="#e1ed5e" stroke-width="0.3" x1="100.0" x2="100.0" y1="15.0" y2="10.0" /><path d="M 100.0 14.0 a86.0,86.0 0 0,1 42.35913384403234,11.155469271406648" fill="none" id="id97" stroke="none" /><text fill="#e1ed5e" style="font-size:6.75px; font-family:Arial;" text-anchor="middle"><textPath startOffset="22.145653131862478" xlink:href="#id97">January</textPath></text><path d="M 102.15924093988457 79.11130261209362 l 1.1499734499564576 -11.124949956511708 a32.18422775476674,32.18422775476674 0 0,0 0.5490692066302915,0.06152434985169293 l -1.3407785581875455 11.103569846153045" fill="#ff6d0a" stroke="none" /><path d="M 104.64783097203109 79.52079915486377 l 2.4595200408765536 -10.837099112005268 a32.11269346265336,32.11269346265336 0 0,0 0.5365386472786886,0.12662165983877519 l -2.6451908418951273 10.793281308520264" fill="#ff6c0a" stroke="none" /><path d="M 107.06938296918511 80.22567764915836 l 3.9601868526437936 -11.077347448156448 a32.76395793918998,32.76395793918998 0 0,0 0.5279847048271361,0.1938832969627183 l -4.149760709125054 11.007733302185008" fill="#ff750a" stroke="none" /><path d="M 108.4095320186766 80.7573450057729 l 12.947390874803444 -29.62616411067001 a53.33178823352175,53.33178823352175 0 0,0 0.8357512718758923,0.37382091358306946 l -13.454055549534969 29.39953944617709" fill="#83ff25" stroke="none" /><path d="M 109.3889696526874 81.21577127319529 l 7.354453065726718 -14.71383268425188 a37.44946358262591,37.44946358262591 0 0,0 0.572571586562374,0.29235913183282397 l -7.605951874002671 14.585415600746222" fill="#ffb610" stroke="none" /><line stroke="#e1ed5e" stroke-width="0.3" x1="143.13028292997686" x2="145.6673583964461" y1="26.7553504044142" y2="22.446841604673864" /><path d="M 143.63769802327073 25.89364864446614 a86.0,86.0 0 0,1 29.32050498858742,28.57503671076993" fill="none" id="id98" stroke="none" /><text fill="#e1ed5e" style="font-size:6.75px; font-family:Arial;" text-anchor="middle"><textPath startOffset="20.669276256404974" xlink:href="#id98">February</textPath></text><path d="M 113.59037401385872 83.9905735841838 l 5.064744564167643 -5.966256361470424 a28.826100719454868,28.826100719454868 0 0,0 0.37449294260427934,0.32347808441440457 l -5.1664169865347835 5.878434144591299" fill="#ff3c05" stroke="none" /><path d="M 114.91283532996326 85.21462403516908 l 9.215130071241802 -9.136368749031504 a33.976588771637346,33.976588771637346 0 0,0 0.4070932469911944,0.4177135343706055 l -9.370610119383809 8.976832522593156" fill="#ff860c" stroke="none" /><path d="M 115.16444852881244 85.47280134310134 l 10.869543494996682 -10.412776789185566 a36.052338564190826,36.052338564190826 0 0,0 0.42429167410976304,0.45058305453068154 l -11.046691002842705 10.22465227471039" fill="#ffa30f" stroke="none" /><line stroke="#e1ed5e" stroke-width="0.3" x1="172.87174338648825" x2="177.1583165268699" y1="56.24261187166439" y2="53.66864786411523" /><path d="M 173.72905801456457 55.72781907015455 a86.0,86.0 0 0,1 12.242430191666344,42.057860355516425" fill="none" id="id99" stroke="none" /><text fill="#e1ed5e" style="font-size:6.75px; font-family:Arial;" text-anchor="middle"><textPath startOffset="22.145653131862474" xlink:href="#id99">March</textPath></text><path d="M 119.0197475246899 91.09779779509293 l 8.611393972096854 -4.030567193713262 a30.507974444943763,30.507974444943763 0 0,0 0.21793667202603115,0.4762309596840676 l -8.679315108977937 3.88214725181451" fill="#ff5507" stroke="none" /><path d="M 119.31412917781788 91.75594674310238 l 11.28635591990441 -4.81747421399953 a33.271507150847924,33.271507150847924 0 0,0 0.21970943595915218,0.5272226638902021 l -11.367391200400046 4.6230190406680505" fill="#ff7d0b" stroke="none" /><path d="M 119.83427380445688 93.10060997987247 l 8.11330784129913 -2.8222296264712887 a29.59015390969325,29.59015390969325 0 0,0 0.16276638830890722,0.4811899053434326 l -8.160559651180401 2.6825380466536948" fill="#ff4806" stroke="none" /><path d="M 120.9064616781168 98.02013634271609 l 6.912889890738479 -0.6546578599574551 a27.943819090030956,27.943819090030956 0 0,0 0.04112581981250334,0.4779443653848238 l -6.923109333248724 0.5358924471969693" fill="#ff2f04" stroke="none" /><line stroke="#e1ed5e" stroke-width="0.3" x1="184.99686870605535" x2="189.99668451229388" y1="99.2704041080226" y2="99.22748670261217" /><path d="M 185.99683186730306 99.26182062694052 a86.0,86.0 0 0,1 -10.086455211305974,41.156179273409016" fill="none" id="id100" stroke="none" /><text fill="#e1ed5e" style="font-size:6.75px; font-family:Arial;" text-anchor="middle"><textPath startOffset="21.40746469413373" xlink:href="#id100">April</textPath></text><path d="M 120.98066250479742 100.90099992219065 l 9.498022029505089 0.4078859334204678 a30.506776183735802,30.506776183735802 0 0,0 -0.026959870322581916,0.5230142818708508 l -9.489620569725934 -0.5708720086680492" fill="#ff5507" stroke="none" /><path d="M 120.82617615685814 102.69636545807757 l 10.542138020644579 1.364890827728436 a31.630127046180455,31.630127046180455 0 0,0 -0.07433905770401701,0.5378803895860833 l -10.517154446385351 -1.5456595255146042" fill="#ff6509" stroke="none" /><path d="M 120.05942366710727 106.21446072829308 l 10.36526953028813 3.211186996352896 a31.85129182913562,31.85129182913562 0 0,0 -0.16628692535947068,0.520891425288466 l -10.308617889151405 -3.3886474553327455" fill="#ff6809" stroke="none" /><path d="M 119.94978838288452 106.5578916946017 l 14.695963870346649 4.83085522311581 a36.469599744829836,36.469599744829836 0 0,0 -0.20060811618802876,0.5930622497836654 l -14.610870332586254 -5.082419147373636" fill="#ffa90f" stroke="none" /><path d="M 119.16976305983485 108.57439118712176 l 56.47680256419768 25.26135543103809 a82.86893651978029,82.86893651978029 0 0,0 -0.5919822789955822,1.2935881153969293 l -56.03483582034704 -26.227132528649708" fill="#4cddff" stroke="none" /><line stroke="#e1ed5e" stroke-width="0.3" x1="174.33088141563837" x2="178.70328620479359" y1="141.23008692659167" y2="143.65538615756765" /><path d="M 175.20536237346943 141.71514677278685 a86.0,86.0 0 0,1 -30.301960400862466,31.631185727798858" fill="none" id="id101" stroke="none" /><text fill="#e1ed5e" style="font-size:6.75px; font-family:Arial;" text-anchor="middle"><textPath startOffset="22.145653131862474" xlink:href="#id101">May</textPath></text><path d="M 118.18653347947321 110.5 l 4.11546770149822 2.3760663853012067 a25.752132770602415,25.752132770602415 0 0,0 -0.22432105257009455,0.3809461885303352 l -4.07407293879836 -2.4463637421250914" fill="#ff0e01" stroke="none" /><path d="M 118.00360718960297 110.81064883170644 l 8.200561966761647 4.9242018397571545 a30.565405392839626,30.565405392839626 0 0,0 -0.273970879730474,0.44751084232878513 l -8.114823122575768 -5.064249798210496" fill="#ff5607" stroke="none" /><path d="M 117.21940702142032 112.02048342749411 l 8.751206217385024 6.109021592660125 a31.672570218967216,31.672570218967216 0 0,0 -0.31504389092818424,0.44314868661785334 l -8.645047227926877 -6.258347505987483" fill="#ff6609" stroke="none" /><path d="M 115.6541949942343 113.99807769240083 l 7.087823856153568 6.337975797863289 a30.508269255240958,30.508269255240958 0 0,0 -0.3524464887931641,0.38740043072104274 l -6.977979666518523 -6.458713804142004" fill="#ff5507" stroke="none" /><path d="M 114.13192950727249 115.5334660781643 l 3.2113761893938695 3.529864982450081 a25.77209428072552,25.77209428072552 0 0,0 -0.32980300310648325,0.29491187904405425 l -3.1503081594640086 -3.5844723913775223" fill="#ff0f01" stroke="none" /><path d="M 112.45986205192187 116.90419585922612 l 11.08701059779154 15.041659197942375 a39.68617979744887,39.68617979744887 0 0,0 -0.5518627679318128,0.3995060855395269 l -10.82716681948576 -15.229766054854979" fill="#ffd413" stroke="none" /><line stroke="#e1ed5e" stroke-width="0.3" x1="143.1302829299769" x2="145.66735839644613" y1="173.24464959558577" y2="177.55315839532614" /><path d="M 143.63769802327073 174.10635135553383 a86.0,86.0 0 0,1 -40.68552437913181,11.842963189579606" fill="none" id="id102" stroke="none" /><text fill="#e1ed5e" style="font-size:6.75px; font-family:Arial;" text-anchor="middle"><textPath startOffset="21.407464694133747" xlink:href="#id102">June</textPath></text><path d="M 110.65571695917076 118.09573695890943 l 5.887301397970631 9.997924860776982 a32.602535036460324,32.602535036460324 0 0,0 -0.48470271453467473,0.27984324271353783 l -5.714806215575557 -10.097515000766691" fill="#ff730a" stroke="none" /><path d="M 108.07796709384702 119.3841803445677 l 2.3967297598586463 5.751278924827498 a27.230692001130937,27.230692001130937 0 0,0 -0.43302705297499156,0.17610833266275908 l -2.297648245693214 -5.7915745140695485" fill="#ff2503" stroke="none" /><path d="M 107.06938296918513 119.77432235084164 l 1.6009712155919467 4.478201425715536 a25.755775104274235,25.755775104274235 0 0,0 -0.41760441711961444,0.14526449398862457 l -1.5238610264273103 -4.505024352272751" fill="#ff0f01" stroke="none" /><path d="M 101.08105385017728 120.97215588758144 l 0.6039773673637362 11.71699957300565 a32.73255588753372,32.73255588753372 0 0,0 -0.5614011152563474,0.024108979449433 l -0.40275049150655917 -11.725641120880912" fill="#ff750a" stroke="none" /><line stroke="#e1ed5e" stroke-width="0.3" x1="101.45913802915013" x2="101.54496967792366" y1="184.9874750549273" y2="189.98673829345242" /><path d="M 101.47630435890484 185.9873277026323 a86.0,86.0 0 0,1 -42.54439059252881,-10.42667462771756" fill="none" id="id103" stroke="none" /><text fill="#e1ed5e" style="font-size:6.75px; font-family:Arial;" text-anchor="middle"><textPath startOffset="22.145653131862474" xlink:href="#id103">July</textPath></text><path d="M 100.0 121.0 l 8.621505893986911e-16 7.039993816984243 a28.039993816984243,28.039993816984243 0 0,0 -0.4813437801823038,-0.00413175743996391 l 0.12085085533345079 -7.038956457738714" fill="#ff3104" stroke="none" /><path d="M 98.55909050195518 120.95050786540614 l -0.5219836064122385 7.589527077579507 a28.607456089040255,28.607456089040255 0 0,0 -0.4896384142384301,-0.03790110995181187 l 0.6521910154259046 -7.579448200632641" fill="#ff3905" stroke="none" /><path d="M 98.19965949673042 120.92268563240118 l -0.32603517566995244 3.7890229505244033 a24.80302430381069,24.80302430381069 0 0,0 -0.42389601200046356,-0.040143393059466126 l 0.3910307510554312 -3.7828678019597537" fill="#ff0000" stroke="none" /><path d="M 96.05791012581884 120.62667999033965 l -1.3413533194733391 7.018527369445979 a28.145554923399892,28.145554923399892 0 0,0 -0.47378821819539557,-0.09477091285200838 l 1.4616380231996928 -6.994467059931109" fill="#ff3204" stroke="none" /><path d="M 95.70440661134978 120.55596938700252 l -2.1516525875022787 10.296436538203071 a31.51885042400302,31.51885042400302 0 0,0 -0.5286725573473204,-0.11522172325486342 l 2.3280875614687355 -10.25798335681449" fill="#ff6409" stroke="none" /><path d="M 94.6519064749342 120.30758222061772 l -1.8815425128341812 7.144523389855573 a28.388126737935384,28.388126737935384 0 0,0 -0.470186593908429,-0.12815144699665126 l 2.0039105076773054 -7.111171448714777" fill="#ff3605" stroke="none" /><path d="M 93.27111125876986 119.89276391827306 l -3.6560646365438467 10.80850545782953 a32.410109502477056,32.410109502477056 0 0,0 -0.525497867284868,-0.18279543667128587 l 3.8410682758737367 -10.744151588589652" fill="#ff700a" stroke="none" /><path d="M 92.93061703081489 119.77432235084164 l -2.084459842219114 5.830605164141588 a27.19200528213104,27.19200528213104 0 0,0 -0.43819378932150693,-0.16091082905527798 l 2.18424278319474 -5.7939634860775895" fill="#ff2403" stroke="none" /><path d="M 92.25597844496254 119.51999308798841 l -2.81430102160589 7.093877011942271 a28.631735143515854,28.631735143515854 0 0,0 -0.45530667712161865,-0.18516926184457178 l 2.9356621599179493 -7.044520493518408" fill="#ff3a05" stroke="none" /><path d="M 91.59046798132341 119.24265499422711 l -2.4048058598168156 5.502666424930615 a27.00520016381369,27.00520016381369 0 0,0 -0.4231928298624711,-0.18928877000199743 l 2.4989120925349217 -5.460573904018762" fill="#ff2103" stroke="none" /><path d="M 90.93487009805054 118.94263497670748 l -3.324861243290813 6.947681231387036 a28.7022708846226,28.7022708846226 0 0,0 -0.442616011851845,-0.21650567116794195 l 3.4436375044047276 -6.889581810121872" fill="#ff3b05" stroke="none" /><path d="M 89.97174638481275 118.45085714620012 l -2.900123971388545 5.3359014595844405 a27.073101632264837,27.073101632264837 0 0,0 -0.4064263159148569,-0.2254378263150583 l 2.9912944754595046 -5.285330717836234" fill="#ff2203" stroke="none" /><line stroke="#e1ed5e" stroke-width="0.3" x1="58.13341422392154" x2="55.67067388415222" y1="173.97424548756322" y2="178.32567169271397" /><path d="M 57.64086615596768 174.84453072859336 a86.0,86.0 0 0,1 -31.369924170532247,-30.572349798747897" fill="none" id="id104" stroke="none" /><text fill="#e1ed5e" style="font-size:6.75px; font-family:Arial;" text-anchor="middle"><textPath startOffset="22.145653131862474" xlink:href="#id104">August</textPath></text><path d="M 88.72937992617639 117.7192867562869 l -6.672946127258529 10.490979658942102 a33.43337702402817,33.43337702402817 0 0,0 -0.4816227100922334,-0.3121820218812837 l 6.852054469607772 -10.374883795356924" fill="#ff7f0b" stroke="none" /><path d="M 88.4268655584334 117.5232005979908 l -2.8290925010675516 4.283606628505345 a26.13352219507928,26.13352219507928 0 0,0 -0.37222064255464293,-0.2504466599902459 l 2.9022094317192 -4.2344102944579785" fill="#ff1402" stroke="none" /><path d="M 87.83215693770417 117.11559508785305 l -5.615701221036061 7.899187040918325 a30.691917050375427,30.691917050375427 0 0,0 -0.4267915527017643,-0.30896417093005846 l 5.750473784111779 -7.801622098615201" fill="#ff5808" stroke="none" /><path d="M 86.68645165197938 116.24036423190432 l -3.5867423337408715 4.375242451018146 a26.65751421331314,26.65751421331314 0 0,0 -0.3514040057947247,-0.293153719750515 l 3.661320673697489 -4.3130265473557605" fill="#ff1c02" stroke="none" /><path d="M 85.34317274990678 115.03919595460226 l -42.779224405928446 43.89525288445834 a82.29319102937399,82.29319102937399 0 0,0 -1.0032248486575346,-0.9946503288250801 l 43.52644117471594 -43.15442254540459" fill="#4be2ff" stroke="none" /><path d="M 84.1078160697243 113.72728997021213 l -7.196558009457323 6.216215406057119 a30.50956261654479,30.50956261654479 0 0,0 -0.33895461064095594,-0.3992876790457999 l 7.3022071836053914 -6.091760944561764" fill="#ff5507" stroke="none" /><path d="M 83.8745106332314 113.45245675266167 l -7.300739370974291 6.090536443060335 a30.507651104617803,30.507651104617803 0 0,0 -0.33202955702469167,-0.405022072319325 l 7.404215747237613 -5.964312089042515" fill="#ff5507" stroke="none" /><path d="M 82.98947788004972 112.3143062007846 l -7.70194990615126 5.575617774613497 a30.508288275260135,30.508288275260135 0 0,0 -0.3034628947808224,-0.4268585652087074 l 7.796527899462043 -5.442581982695286" fill="#ff5507" stroke="none" /><line stroke="#e1ed5e" stroke-width="0.3" x1="26.387840678322732" x2="22.057713659400548" y1="142.50000000000003" y2="145.00000000000006" /><path d="M 25.521815274538298 143.00000000000003 a86.0,86.0 0 0,1 -11.493303480769221,-40.785679425670985" fill="none" id="id105" stroke="none" /><text fill="#e1ed5e" style="font-size:6.75px; font-family:Arial;" text-anchor="middle"><textPath startOffset="21.40746469413373" xlink:href="#id105">September</textPath></text><path d="M 81.63589988554817 110.18625677009913 l -6.009615661992315 3.3334325036971895 a27.872208717840884,27.872208717840884 0 0,0 -0.22849192129849805,-0.4203993996077895 l 6.065952932906144 -3.229778270614813" fill="#ff2e04" stroke="none" /><path d="M 81.29705330413844 109.54985784667822 l -5.586788355698532 2.852653941862739 a27.272944973725956,27.272944973725956 0 0,0 -0.2093264589446034,-0.4187931401250246 l 5.634934727854873 -2.7563289455739617" fill="#ff2503" stroke="none" /><path d="M 80.68587082218212 108.24405325689762 l -8.748868009391963 3.73437151335984 a30.512529739535932,30.512529739535932 0 0,0 -0.20149044250883402,-0.483503712001126 l 8.811684296437281 -3.5836352919174326" fill="#ff5507" stroke="none" /><path d="M 79.73907114497094 105.5222062557868 l -60.78278656508718 16.566618767360406 a84.0,84.0 0 0,0 -0.36724207678106957,-1.3944779825087894 l 61.05821812267298 -15.520760280478815" fill="#4dd2ff" stroke="none" /><path d="M 79.48165901384964 104.47187691870673 l -12.969475996971541 2.826636929258846 a34.273928731384345,34.273928731384345 0 0,0 -0.12035418874737082,-0.5759383618629469 l 13.016087896543278 -2.60358211611049" fill="#ff8b0c" stroke="none" /><path d="M 79.0935383218832 101.97986365728391 l -10.592567822743204 1.003127185865023 a31.639960396093407,31.639960396093407 0 0,0 -0.046565550182390544,-0.5411622779116364 l 10.608226995623335 -0.8211438605777247" fill="#ff6509" stroke="none" /><line stroke="#e1ed5e" stroke-width="0.3" x1="15.003131293944662" x2="10.003315487706104" y1="100.72959589197737" y2="100.7725132973878" /><path d="M 14.003168132696942 100.73817937305945 a86.0,86.0 0 0,1 10.791469493833604,-42.45332614584628" fill="none" id="id106" stroke="none" /><text fill="#e1ed5e" style="font-size:6.75px; font-family:Arial;" text-anchor="middle"><textPath startOffset="22.145653131862435" xlink:href="#id106">October</textPath></text><path d="M 79.00077361379809 100.18025310272382 l -12.491156147179511 0.10722155239091544 a33.49161632273893,33.49161632273893 0 0,0 0.0,-0.5749493102294614 l 12.491156147179511 0.10722155239091084" fill="#ff800b" stroke="none" /><path d="M 79.01933749520258 99.09900007780938 l -5.70587264827737 -0.24503472237599633 a26.711131647364617,26.711131647364617 0 0,0 0.02360553081863758,-0.45794099161329693 l 5.700825528002162 0.34294750736600527" fill="#ff1d02" stroke="none" /><path d="M 79.17382384314186 97.30363454192245 l -10.40538428463379 -1.3471853186966547 a31.49223190716902,31.49223190716902 0 0,0 0.0740149681206588,-0.5355354388059504 l 10.380724799957925 1.5256090657026722" fill="#ff6309" stroke="none" /><path d="M 79.34024301695615 96.23510406497455 l -11.234504724438063 -2.0473010018353746 a32.41952441196818,32.41952441196818 0 0,0 0.10447378187652086,-0.5466509731960846 l 11.197704650279382 2.2398545400647736" fill="#ff700a" stroke="none" /><path d="M 79.73907114497095 94.47779374421319 l -9.1739760064343 -2.5004079554129093 a30.508621125595678,30.508621125595678 0 0,0 0.1420561418279051,-0.5041071325346113 l 9.129701372531814 2.6575230118505337" fill="#ff5507" stroke="none" /><path d="M 80.16572619554312 93.10060997987247 l -13.022080269537511 -4.5297554898510075 a34.787431209043746,34.787431209043746 0 0,0 0.20103793981607482,-0.56233889775113 l 12.942402159677494 4.752629343983059" fill="#ff920d" stroke="none" /><path d="M 80.5471966667186 92.08871423366112 l -10.568215794194197 -4.29800136030588 a32.40876859112529,32.40876859112529 0 0,0 0.2140123149517619,-0.51355164743655 l 10.492877634705957 4.478785517183694" fill="#ff700a" stroke="none" /><path d="M 81.29705330413844 90.45014215332179 l -9.317892115395203 -4.757782106730688 a31.46229439698916,31.46229439698916 0 0,0 0.24973860035776435,-0.4789066954547737 l 9.234845446062499 4.917035045289949" fill="#ff6309" stroke="none" /><line stroke="#e1ed5e" stroke-width="0.3" x1="26.387840678322718" x2="22.05771365940052" y1="57.49999999999999" y2="54.99999999999999" /><path d="M 25.521815274538284 56.99999999999999 a86.0,86.0 0 0,1 29.574782752854787,-30.34633250058573" fill="none" id="id107" stroke="none" /><text fill="#e1ed5e" style="font-size:6.75px; font-family:Arial;" text-anchor="middle"><textPath startOffset="21.40746469413373" xlink:href="#id107">November</textPath></text><path d="M 84.83555147118756 85.47280134310135 l -7.552462375792685 -7.235088112398712 a31.45878520345156,31.45878520345156 0 0,0 0.37692597985477383,-0.38675926069745914 l 7.427149594787109 7.363670065163901" fill="#ff6309" stroke="none" /><path d="M 85.86807049272753 84.46653392183569 l -7.115423101177179 -7.8210964268569025 a31.573494939089898,31.573494939089898 0 0,0 0.40404296740705214,-0.3612977129079581 l 6.9801151069467355 7.9420896696482615" fill="#ff6409" stroke="none" /><path d="M 86.96720088162412 83.53348406188908 l -5.91226570364911 -7.469954578078141 a30.526547493667163,30.526547493667163 0 0,0 0.41369294482464625,-0.32169013609505237 l 5.78316281418922 7.5703457657939985" fill="#ff5507" stroke="none" /><path d="M 88.12776184653039 82.6780497279521 l -6.230485070743032 -9.090463918516269 a32.02068411989918,32.02068411989918 0 0,0 0.4560716894255063,-0.306865386478288 l 6.073517093220536 9.196078979051666" fill="#ff6b09" stroke="none" /><line stroke="#e1ed5e" stroke-width="0.3" x1="56.869717070023135" x2="54.33264160355391" y1="26.7553504044142" y2="22.446841604673864" /><path d="M 56.362301976729285 25.89364864446614 a86.0,86.0 0 0,1 42.16139366436587,-11.88097634709845" fill="none" id="id108" stroke="none" /><text fill="#e1ed5e" style="font-size:6.75px; font-family:Arial;" text-anchor="middle"><textPath startOffset="22.145653131862474" xlink:href="#id108">December</textPath></text><path d="M 90.28995756902619 81.37971332152246 l -3.0903813107715696 -5.926213645454147 a27.683596697702004,27.683596697702004 0 0,0 0.4232594906996133,-0.216119311794497 l 2.988194598358374 5.978390908921478" fill="#ff2c04" stroke="none" /><path d="M 91.5904679813234 80.7573450057729 l -3.8674179991313067 -8.849409231152338 a30.657585915766372,30.657585915766372 0 0,0 0.48404667474367263,-0.20661074225360765 l 3.714936249217203 8.914494623065348" fill="#ff5708" stroke="none" /><path d="M 93.95794788825049 79.88797359093562 l -4.175900838494763 -13.900215753207442 a35.51392937142308,35.51392937142308 0 0,0 0.5853710034716312,-0.17039296782218077 l 3.936669822641507 13.969852415332143" fill="#ff9c0e" stroke="none" /><path d="M 96.76829788921471 79.25015418208739 l -7.947979005922027 -51.03172671345421 a72.64695055504491,72.64695055504491 0 0,0 1.2338734960544941,-0.18133691315259254 l 7.070780404259849 51.160644699905696" fill="#3effb7" stroke="none" /></svg>