<?xml version="1.0" encoding="utf-8" ?>
<svg baseProfile="full" height="200mm" version="1.1" viewBox="0,0,200,200" width="200mm" xmlns="http://www.w3.org/2000/svg" xmlns:ev="http://www.w3.org/2001/xml-events" xmlns:xlink="http://www.w3.org/1999/xlink"><defs /><rect fill="#1a1a1a" height="200" width="200" x="0" y="0" /><text alignment-baseline="middle" fill="#e1ed5e" style="dominant-baseline: central; font-size:9.0px; font-family:Arial;" text-anchor="middle" x="100.0" y="100.0">2020</text><line stroke="#e1ed5e" stroke-width="0.3" x1="100.0" x2="100.0" y1="15.0" y2="10.0" /><path d="M 100.0 14.0 a86.0,86.0 0 0,1 42.35913384403234,11.155469271406648" fill="none" id="id49" stroke="none" /><text fill="#e1ed5e" style="font-size:6.75px; font-family:Arial;" text-anchor="middle"><textPath startOffset="22.145653131862478" xlink:href="#id49">January</textPath></text><path d="M 101.08105385017728 79.02784411241856 l 0.29601007348762 -5.742516345932986 a26.75014051540601,26.75014051540601 0 0,0 0.45838995931995696,0.027575601670005768 l -0.3945443849400393 5.736588766438289" fill="#ff3c05" stroke="none" /><path d="M 106.04205211174951 79.88797359093562 l 1.6713485493326412 -5.56337574407255 a26.809006424776197,26.809006424776197 0 0,0 0.43961583265601584,0.136194108709936 l -1.7666050148602872 5.533865047555968" fill="#ff3d05" stroke="none" /><path d="M 110.34350942703115 81.72400993836675 l 4.507955004170083 -7.965124548462812 a30.152314865221093,30.152314865221093 0 0,0 0.44827522916033014,0.2588118242267578 l -4.64402270119081 7.886565826959883" fill="#ff6c09" stroke="none" /><line stroke="#e1ed5e" stroke-width="0.3" x1="143.13028292997686" x2="145.6673583964461" y1="26.7553504044142" y2="22.446841604673864" /><path d="M 143.63769802327073 25.89364864446614 a86.0,86.0 0 0,1 29.32050498858742,28.57503671076993" fill="none" id="id50" stroke="none" /><text fill="#e1ed5e" style="font-size:6.75px; font-family:Arial;" text-anchor="middle"><textPath startOffset="20.669276256404974" xlink:href="#id50">February</textPath></text><path d="M 111.5731344415666 82.4767994020092 l 1.0952923222398536 -1.6584121763170372 a22.987459739897687,22.987459739897687 0 0,0 0.3274111683535308,0.22029684596444132 l -1.1235997786903853 1.639365656295477" fill="#ff0600" stroke="none" /><line stroke="#e1ed5e" stroke-width="0.3" x1="172.87174338648825" x2="177.1583165268699" y1="56.24261187166439" y2="53.66864786411523" /><path d="M 173.72905801456457 55.72781907015455 a86.0,86.0 0 0,1 12.242430191666344,42.057860355516425" fill="none" id="id51" stroke="none" /><text fill="#e1ed5e" style="font-size:6.75px; font-family:Arial;" text-anchor="middle"><textPath startOffset="22.145653131862474" xlink:href="#id51">March</textPath></text><path d="M 120.35273937422433 94.82641323984039 l 7.028569520787495 -1.7866348871768725 a28.252093058463913,28.252093058463913 0 0,0 0.11544676125898609,0.4710621822405339 l -7.058203808562772 1.6657168803282436" fill="#ff5107" stroke="none" /><path d="M 120.7213421655516 96.59031103205396 l 6.741328936011309 -1.1092831110441397 a27.831985424746684,27.831985424746684 0 0,0 0.07352747724735702,0.4720991489812688 l -6.7593779053969305 0.9933957801314296" fill="#ff4b07" stroke="none" /><path d="M 120.82617615685814 97.30363454192243 l 2.8250207197978114 -0.3657554910630032 a23.84859950616609,23.84859950616609 0 0,0 0.04908031982311019,0.40645545522752446 l -2.8308831258805855 0.3172063589120658" fill="#ff1202" stroke="none" /><line stroke="#e1ed5e" stroke-width="0.3" x1="184.99686870605535" x2="189.99668451229388" y1="99.2704041080226" y2="99.22748670261217" /><path d="M 185.99683186730306 99.26182062694052 a86.0,86.0 0 0,1 -10.086455211305974,41.156179273409016" fill="none" id="id52" stroke="none" /><text fill="#e1ed5e" style="font-size:6.75px; font-family:Arial;" text-anchor="middle"><textPath startOffset="21.40746469413373" xlink:href="#id52">April</textPath></text><path d="M 120.99922638620191 99.81974689727618 l 5.96522670590143 -0.051204296882874464 a26.965446465506073,26.965446465506073 0 0,0 0.0,0.46291479921340195 l -5.96522670590143 -0.051204296882873736" fill="#ff3f05" stroke="none" /><path d="M 120.96210409425399 101.26102812881392 l 5.432544394585238 0.3268083805804676 a26.442365507456948,26.442365507456948 0 0,0 -0.031146637146665337,0.45286526836529817 l -5.426133796273508 -0.4200170731001092" fill="#ff3805" stroke="none" /><path d="M 120.65975698304385 103.76489593502545 l 7.641449713686664 1.3925266879166198 a28.767295816650865,28.767295816650865 0 0,0 -0.09270426518708066,0.4850678885525682 l -7.6164191562174235 -1.5234971415025025" fill="#ff5908" stroke="none" /><path d="M 120.43855184770803 104.8234425847677 l 6.169470959567383 1.4559783478594188 a27.33894666883866,27.33894666883866 0 0,0 -0.11171536362343423,0.4558368065449359 l -6.143568069427653 -1.5616709790124543" fill="#ff4406" stroke="none" /><path d="M 119.71291397450082 107.23885506374661 l 4.855932408106035 1.7831656419288837 a26.172983593502895,26.172983593502895 0 0,0 -0.1584952583867442,0.4204275032403045 l -4.824606465904851 -1.8662614253633472" fill="#ff3404" stroke="none" /><path d="M 119.31412917781788 108.2440532568976 l 9.91766170450272 4.233260041033431 a31.78334383482091,31.78334383482091 0 0,0 -0.2184970459977668,0.49996400085701936 l -9.843530776487988 -4.402886111666295" fill="#ff820c" stroke="none" /><line stroke="#e1ed5e" stroke-width="0.3" x1="174.33088141563837" x2="178.70328620479359" y1="141.23008692659167" y2="143.65538615756765" /><path d="M 175.20536237346943 141.71514677278685 a86.0,86.0 0 0,1 -30.301960400862466,31.631185727798858" fill="none" id="id53" stroke="none" /><text fill="#e1ed5e" style="font-size:6.75px; font-family:Arial;" text-anchor="middle"><textPath startOffset="22.145653131862474" xlink:href="#id53">May</textPath></text><path d="M 118.18653347947321 110.5 l 9.127363668057313 5.269685870744497 a31.539371741489,31.539371741489 0 0,0 -0.27473239321470017,0.4665556659166189 l -9.035557564712848 -5.425592704954665" fill="#ff7f0b" stroke="none" /><path d="M 115.89218393027572 113.72728997021213 l 3.980407715993704 3.4381813825488075 a26.25972782611871,26.25972782611871 0 0,0 -0.2975964136226246,0.3386100896823851 l -3.9208002384124936 -3.5060037500424857" fill="#ff3505" stroke="none" /><path d="M 115.16444852881244 114.52719865689866 l 11.377100604296235 10.899005018488223 a36.75521274224214,36.75521274224214 0 0,0 -0.44038555487896,0.4518743751556988 l -11.188328248266467 -11.09270208571166" fill="#ffc412" stroke="none" /><path d="M 110.96478420261333 117.91015095944535 l 5.17607151657777 8.454723825453687 a30.913327963374456,30.913327963374456 0 0,0 -0.45496652663219317,0.27319432699255414 l -5.03017223338814 -8.542332152982166" fill="#ff760a" stroke="none" /><line stroke="#e1ed5e" stroke-width="0.3" x1="143.1302829299769" x2="145.66735839644613" y1="173.24464959558577" y2="177.55315839532614" /><path d="M 143.63769802327073 174.10635135553383 a86.0,86.0 0 0,1 -40.68552437913181,11.842963189579606" fill="none" id="id54" stroke="none" /><text fill="#e1ed5e" style="font-size:6.75px; font-family:Arial;" text-anchor="middle"><textPath startOffset="21.407464694133747" xlink:href="#id54">June</textPath></text><path d="M 109.06512990194946 118.94263497670748 l 6.365617743035937 13.301692817623183 a35.74639349349061,35.74639349349061 0 0,0 -0.5557905197149924,0.2601380267351331 l -6.1363385094494385 -13.40900707592885" fill="#ffb710" stroke="none" /><path d="M 108.73861861582097 119.09545874513695 l 5.833466050807368 12.747176094019759 a35.01855286889025,35.01855286889025 0 0,0 -0.5487684000258768,0.24545712527932123 l -5.613784247925865 -12.845436970208931" fill="#ffad10" stroke="none" /><path d="M 107.06938296918513 119.77432235084164 l 1.7710660433579768 4.953986931907186 a26.261051363695554,26.261051363695554 0 0,0 -0.425796971874645,0.1481142898053741 l -1.6857632994383098 -4.9836596542811495" fill="#ff3505" stroke="none" /><path d="M 100.72087961077811 120.9876233191556 l 0.2926424362216627 8.519965229687656 a29.524989566595632,29.524989566595632 0 0,0 -0.5066863400952983,0.013050442780671906 l -0.14634278205562049 -8.523733389818373" fill="#ff6309" stroke="none" /><line stroke="#e1ed5e" stroke-width="0.3" x1="101.45913802915013" x2="101.54496967792366" y1="184.9874750549273" y2="189.98673829345242" /><path d="M 101.47630435890484 185.9873277026323 a86.0,86.0 0 0,1 -42.54439059252881,-10.42667462771756" fill="none" id="id55" stroke="none" /><text fill="#e1ed5e" style="font-size:6.75px; font-family:Arial;" text-anchor="middle"><textPath startOffset="22.145653131862474" xlink:href="#id55">July</textPath></text><path d="M 95.00130118170881 120.39639698878247 l -1.566366139820093 6.391308374221854 a27.580450259547085,27.580450259547085 0 0,0 -0.45887920624507056,-0.11664529979432069 l 1.6758506392905423 -6.36347784259227" fill="#ff4806" stroke="none" /><path d="M 93.95794788825049 120.11202640906438 l -2.172800865739228 7.232547416862964 a28.551874319619486,28.551874319619486 0 0,0 -0.4681954938587058,-0.1450481608063199 l 2.2966369924695678 -7.194182668249995" fill="#ff5607" stroke="none" /><path d="M 91.92203290615298 119.3841803445677 l -2.0337231904231707 4.8801953060838885 a26.286996901908324,26.286996901908324 0 0,0 -0.4150402929417306,-0.1771560212354638 l 2.1171985585353323 -4.844564635189021" fill="#ff3605" stroke="none" /><path d="M 91.59046798132341 119.24265499422711 l -4.235049120624223 9.690621182104907 a31.5756219651215,31.5756219651215 0 0,0 -0.49481495167708084,-0.22132443409306093 l 4.400777475156938 -9.616492997101991" fill="#ff7f0b" stroke="none" /><path d="M 89.97174638481275 118.45085714620012 l -2.6074372675783337 4.797390890564138 a26.46019124767843,26.46019124767843 0 0,0 -0.3972251939681739,-0.2203341190744215 l 2.6894066497026103 -4.7519238560565675" fill="#ff3805" stroke="none" /><line stroke="#e1ed5e" stroke-width="0.3" x1="58.13341422392154" x2="55.67067388415222" y1="173.97424548756322" y2="178.32567169271397" /><path d="M 57.64086615596768 174.84453072859336 a86.0,86.0 0 0,1 -31.369924170532247,-30.572349798747897" fill="none" id="id56" stroke="none" /><text fill="#e1ed5e" style="font-size:6.75px; font-family:Arial;" text-anchor="middle"><textPath startOffset="22.145653131862474" xlink:href="#id56">August</textPath></text><path d="M 89.03521579738668 117.91015095944536 l -1.1613901749961673 1.897043568996135 a23.22432044482067,23.22432044482067 0 0,0 -0.3382300131670771,-0.21108054359986905 l 1.193784316952957 -1.876827228554718" fill="#ff0901" stroke="none" /><path d="M 87.54013794807813 116.9041958592261 l -3.1197463310472364 4.232535062696794 a26.258057647747926,26.258057647747926 0 0,0 -0.3605444018922337,-0.27055924076082233 l 3.1919437218502367 -4.178356794671957" fill="#ff3505" stroke="none" /><path d="M 85.34317274990678 115.03919595460226 l -3.675424452302116 3.771309275283756 a26.266072403074382,26.266072403074382 0 0,0 -0.3202060362684978,-0.3174692489848395 l 3.7396224087005763 -3.707660016070257" fill="#ff3505" stroke="none" /><path d="M 83.64595745247003 113.17365903436017 l -6.669606133638623 5.372562584613238 a29.564349053107073,29.564349053107073 0 0,0 -0.31497796854335297,-0.397964373736108 l 6.760850532823537 -5.257278266962449" fill="#ff6409" stroke="none" /><path d="M 82.37810715431573 111.42229804090323 l -7.328987979979152 4.7505614623017784 a29.733950939740026,29.733950939740026 0 0,0 -0.2739520697573066,-0.4306981558878175 l 7.409457741362348 -4.624049631735289" fill="#ff6609" stroke="none" /><line stroke="#e1ed5e" stroke-width="0.3" x1="26.387840678322732" x2="22.057713659400548" y1="142.50000000000003" y2="145.00000000000006" /><path d="M 25.521815274538298 143.00000000000003 a86.0,86.0 0 0,1 -11.493303480769221,-40.785679425670985" fill="none" id="id57" stroke="none" /><text fill="#e1ed5e" style="font-size:6.75px; font-family:Arial;" text-anchor="middle"><textPath startOffset="21.40746469413373" xlink:href="#id57">September</textPath></text><path d="M 81.29705330413844 109.54985784667822 l -24.66338144236586 12.593298298022331 a48.69248176300941,48.69248176300941 0 0,0 -0.3737265922141796,-0.7477035339475221 l 24.875927947791777 -12.168062907911056" fill="#aaff21" stroke="none" /><path d="M 79.0935383218832 101.97986365728391 l -5.211766671773928 0.49355972247036917 a26.23508481694982,26.23508481694982 0 0,0 -0.03861102047187728,-0.44871858507441464 l 5.219471314943546 -0.4040200900202925" fill="#ff3505" stroke="none" /><line stroke="#e1ed5e" stroke-width="0.3" x1="15.003131293944662" x2="10.003315487706104" y1="100.72959589197737" y2="100.7725132973878" /><path d="M 14.003168132696942 100.73817937305945 a86.0,86.0 0 0,1 10.791469493833604,-42.45332614584628" fill="none" id="id58" stroke="none" /><text fill="#e1ed5e" style="font-size:6.75px; font-family:Arial;" text-anchor="middle"><textPath startOffset="22.145653131862435" xlink:href="#id58">October</textPath></text><path d="M 79.00077361379809 100.18025310272382 l -10.60947501963501 0.09106958301171861 a31.609865873855767,31.609865873855767 0 0,0 0.0,-0.5426453714710684 l 10.60947501963501 0.09106958301171471" fill="#ff800b" stroke="none" /><path d="M 79.03789590574601 98.7389718711861 l -5.926056519462082 -0.3564968445143434 a26.936769818007747,26.936769818007747 0 0,0 0.03172899925266563,-0.4613326855756092 l 5.919063559044353 0.4581729542442775" fill="#ff3f05" stroke="none" /><path d="M 79.13060592940154 97.66154086499901 l -10.523648957158784 -1.1791968158808128 a31.589508605411897,31.589508605411897 0 0,0 0.06501107895276936,-0.5383849939408781 l 10.501855791946346 1.3596754867451273" fill="#ff7f0b" stroke="none" /><path d="M 80.5471966667186 92.08871423366112 l -5.7080688049727195 -2.321421890530474 a27.162065325533053,27.162065325533053 0 0,0 0.1793655461744427,-0.4304120150842903 l 5.667377414261798 2.419066415056028" fill="#ff4206" stroke="none" /><line stroke="#e1ed5e" stroke-width="0.3" x1="26.387840678322718" x2="22.05771365940052" y1="57.49999999999999" y2="54.99999999999999" /><path d="M 25.521815274538284 56.99999999999999 a86.0,86.0 0 0,1 29.574782752854787,-30.34633250058573" fill="none" id="id59" stroke="none" /><text fill="#e1ed5e" style="font-size:6.75px; font-family:Arial;" text-anchor="middle"><textPath startOffset="21.40746469413373" xlink:href="#id59">November</textPath></text><path d="M 81.81346652052679 89.5 l -9.215203929482392 -5.320400469323958 a31.640800938647914,31.640800938647914 0 0,0 0.2756159202013837,-0.4680560878974571 l 9.122514299151229 5.477807725514988" fill="#ff800b" stroke="none" /><path d="M 82.37810715431573 88.57770195909679 l -4.838425862999079 -3.1362091881931313 a26.765949436462776,26.765949436462776 0 0,0 0.25322571533850663,-0.3834160078974892 l 4.783875708739844 3.2188050744296817" fill="#ff3c05" stroke="none" /><path d="M 82.98947788004972 87.6856937992154 l -19.94855941607866 -14.441218628206064 a45.62709520516917,45.62709520516917 0 0,0 0.46474016745916724,-0.6305092930918567 l 19.69771722903567 14.781534230566784" fill="#cdff1d" stroke="none" /><path d="M 85.08716467003674 85.21462403516908 l -1.1357903867008299 -1.1260828348899798 a22.599400623219797,22.599400623219797 0 0,0 0.2755061504649482,-0.27315141119160763 l 1.1162923161059053 1.145414256310261" fill="#ff0000" stroke="none" /><path d="M 88.4268655584334 82.4767994020092 l -5.792542349481123 -8.770647405403732 a31.510842153721438,31.510842153721438 0 0,0 0.4539277376753188,-0.294230475361802 l 5.641128979548778 8.86879172246944" fill="#ff7e0b" stroke="none" /><line stroke="#e1ed5e" stroke-width="0.3" x1="56.869717070023135" x2="54.33264160355391" y1="26.7553504044142" y2="22.446841604673864" /><path d="M 56.362301976729285 25.89364864446614 a86.0,86.0 0 0,1 42.16139366436587,-11.88097634709845" fill="none" id="id60" stroke="none" /><text fill="#e1ed5e" style="font-size:6.75px; font-family:Arial;" text-anchor="middle"><textPath startOffset="22.145653131862474" xlink:href="#id60">December</textPath></text><path d="M 90.28995756902619 81.37971332152246 l -2.5983800601653106 -4.982736374620097 a26.619540970224072,26.619540970224072 0 0,0 0.40699095123899837,-0.20781247962797392 l 2.51246188721273 5.026606805920904" fill="#ff3a05" stroke="none" /><path d="M 90.93487009805054 81.0573650232925 l -9.73888983256502 -20.350534098466106 a43.56081144958377,43.56081144958377 0 0,0 0.6772903129144621,-0.3170060648366873 l 9.388110805779036 20.514716394873336" fill="#e6ff1a" stroke="none" /><path d="M 92.93061703081487 80.22567764915836 l -21.208148907555373 -59.32296705252492 a84.0,84.0 0 0,0 1.3619769118199827,-0.47376626972565683 l 20.186666223690388 59.67829175481917" fill="#4dd2ff" stroke="none" /><path d="M 94.30408787586887 79.78721728523814 l -1.3176436627381214 -4.6758525184359865 a25.85796064168063,25.85796064168063 0 0,0 0.42827998309883814,-0.11672961387007655 l 1.2371822787046056 4.697782626450203" fill="#ff2f04" stroke="none" /></svg>