<?xml version="1.0" encoding="utf-8" ?>
<svg baseProfile="full" height="200mm" version="1.1" viewBox="0,0,200,200" width="200mm" xmlns="http://www.w3.org/2000/svg" xmlns:ev="http://www.w3.org/2001/xml-events" xmlns:xlink="http://www.w3.org/1999/xlink"><defs /><rect fill="#1a1a1a" height="200" width="200" x="0" y="0" /><text alignment-baseline="middle" fill="#e1ed5e" style="dominant-baseline: central; font-size:9.0px; font-family:Arial;" text-anchor="middle" x="100.0" y="100.0">2025</text><line stroke="#e1ed5e" stroke-width="0.3" x1="100.0" x2="100.0" y1="15.0" y2="10.0" /><path d="M 100.0 14.0 a86.0,86.0 0 0,1 42.46469731375804,11.215312516191453" fill="none" id="id109" stroke="none" /><text fill="#e1ed5e" style="font-size:6.75px; font-family:Arial;" text-anchor="middle"><textPath startOffset="22.20632615414155" xlink:href="#id109">January</textPath></text><path d="M 109.08828744355905 81.06846463323043 l 3.3817209989423405 -7.044360237241016 a28.814028926661962,28.814028926661962 0 0,0 0.4452847761854464,0.21849930582364777 l -3.5024770421382185 6.985105771282537" fill="#ff5a08" stroke="none" /><line stroke="#e1ed5e" stroke-width="0.3" x1="143.23703022742887" x2="145.7803849466894" y1="26.81831364943548" y2="22.513508569990506" /><path d="M 143.74570117128098 25.957352633546492 a86.0,86.0 0 0,1 28.547481713284135,27.462654790039103" fill="none" id="id110" stroke="none" /><text fill="#e1ed5e" style="font-size:6.75px; font-family:Arial;" text-anchor="middle"><textPath startOffset="19.985693538727396" xlink:href="#id110">February</textPath></text><path d="M 111.2981086023043 82.29822771554956 l 5.935095967408598 -9.299053584951322 a32.031670848885305,32.031670848885305 0 0,0 0.4622215469731755,0.30064175168015134 l -6.094284540166054 9.195512909111642" fill="#ff860c" stroke="none" /><path d="M 112.77801427241765 83.33499621200491 l 3.3568121491396092 -4.377932751394185 a26.516745687481084,26.516745687481084 0 0,0 0.35982901257374666,0.28085225182703183 l -3.4316737168727864 4.319502110343929" fill="#ff3905" stroke="none" /><path d="M 117.65298651832404 88.62581576622439 l 5.177938920993518 -3.3362531137427616 a27.159678263391505,27.159678263391505 0 0,0 0.24983334930122883,0.39517636098593417 l -5.2345998665407025 3.2466291050426213" fill="#ff4206" stroke="none" /><line stroke="#e1ed5e" stroke-width="0.3" x1="172.23445277983987" x2="176.4835382374775" y1="55.19839476539836" y2="52.563006222186495" /><path d="M 173.08426987136738 54.67131705675599 a86.0,86.0 0 0,1 12.851231095245387,41.99856678651699" fill="none" id="id111" stroke="none" /><text fill="#e1ed5e" style="font-size:6.75px; font-family:Arial;" text-anchor="middle"><textPath startOffset="22.20632615414155" xlink:href="#id111">March</textPath></text><path d="M 119.04729006885535 91.15688171328212 l 10.044657013418199 -4.6634502755018685 a32.07442562796328,32.07442562796328 0 0,0 0.22818308921662658,0.5027711902741719 l -10.123442419598174 4.489857076385634" fill="#ff860c" stroke="none" /><path d="M 119.7369772167798 92.82701384747503 l 5.649777340010201 -2.0532918582025155 a27.011321938363764,27.011321938363764 0 0,0 0.1550538877582931,0.4383582204737728 l -5.684284308578303 1.9557360113021283" fill="#ff4006" stroke="none" /><path d="M 120.08093135843002 93.85539295169968 l 10.87867988952869 -3.328790479498309 a32.37657778926662,32.37657778926662 0 0,0 0.15848196516384988,0.5343224009273719 l -10.934367751804244 3.141038691824407" fill="#ff8a0c" stroke="none" /><path d="M 120.96714384426684 98.82574320788733 l 11.017704782410087 -0.6170423005790019 a32.03496986280642,32.03496986280642 0 0,0 0.026095368795300018,0.5508319912917297 l -11.026693759438885 0.4272992026642725" fill="#ff860c" stroke="none" /><line stroke="#e1ed5e" stroke-width="0.3" x1="184.98032266829074" x2="189.97916517819016" y1="98.17113171792111" y2="98.06355123074" /><path d="M 185.9800911702706 98.14961562048488 a86.0,86.0 0 0,1 -9.607161424134198,41.387399972396054" fill="none" id="id112" stroke="none" /><text fill="#e1ed5e" style="font-size:6.75px; font-family:Arial;" text-anchor="middle"><textPath startOffset="21.466115282336823" xlink:href="#id112">April</textPath></text><path d="M 120.9904718944345 100.63252640178507 l 11.811573891696673 0.3559296985178452 a32.81693546353273,32.81693546353273 0 0,0 -0.021874623945198554,0.5644868463190945 l -11.80369713490027 -0.5591937918509459" fill="#ff900d" stroke="none" /><path d="M 120.9764740272857 100.99374915477107 l 14.532683398619808 0.688478045697685 a35.54898239685262,35.54898239685262 0 0,0 -0.034217840784541736,0.6109825334532508 l -14.518679206947738 -0.9385322954863591" fill="#ffb410" stroke="none" /><path d="M 118.64920377521936 109.65438752849418 l 55.94761132565807 28.96316258548255 a84.0,84.0 0 0,0 -0.6757899671004277,1.2783399396554627 l -55.44076885033275 -29.921917540224147" fill="#4dd2ff" stroke="none" /><line stroke="#e1ed5e" stroke-width="0.3" x1="174.80103733775053" x2="179.2010983576182" y1="140.37084112569926" y2="142.7455964860345" /><path d="M 175.68104954172406 140.8457921977663 a86.0,86.0 0 0,1 -30.038265399797805,32.042727171017184" fill="none" id="id113" stroke="none" /><text fill="#e1ed5e" style="font-size:6.75px; font-family:Arial;" text-anchor="middle"><textPath startOffset="22.206326154141568" xlink:href="#id113">May</textPath></text><path d="M 118.12598468904814 110.60418214915192 l 6.2395212130313595 3.6502855211203697 a28.22884564460809,28.22884564460809 0 0,0 -0.248977241444963,0.4173001778059288 l -6.175763095888169 -3.7571477928124026" fill="#ff5107" stroke="none" /><path d="M 117.94076556474637 110.91462005526583 l 30.371037866180846 18.47682239629898 a56.54986507616262,56.54986507616262 0 0,0 -0.513083281857844,0.8272536196283787 l -30.04848994465504 -18.996872347292634" fill="#55ff2b" stroke="none" /><path d="M 114.81725581225074 114.88116024355365 l 7.005284430579414 7.035497090961589 a30.92835481186321,30.92835481186321 0 0,0 -0.3804924732658664,0.37239196814065656 l -6.883142004937754 -7.155039162024817" fill="#ff770a" stroke="none" /><path d="M 114.0293411484842 115.62618273729858 l 8.107558030561197 9.030372987436406 a33.13590266569152,33.13590266569152 0 0,0 -0.4277018957561272,0.3773971949580637 l -7.950913781898482 -9.168593324166759" fill="#ff950d" stroke="none" /><path d="M 112.34349029814194 116.9893568818739 l 5.9307829540012245 8.163022432125903 a31.09005062796328,31.09005062796328 0 0,0 -0.43566439407639135,0.3108349775664107 l -5.789391232075948 -8.263901671536532" fill="#ff790b" stroke="none" /><path d="M 111.1453310114006 117.79835938074945 l 11.333958215229764 18.099584598672834 a42.35541082417028,42.35541082417028 0 0,0 -0.6212546442503181,0.3816253438169127 l -11.020724371047137 -18.291998409318122" fill="#f4ff19" stroke="none" /><line stroke="#e1ed5e" stroke-width="0.3" x1="143.8653032363475" x2="146.44561519142675" y1="172.8068346515853" y2="177.08958963109032" /><path d="M 144.38136562736335 173.6633856474863 a86.0,86.0 0 0,1 -40.68145358897372,12.25698825130547" fill="none" id="id114" stroke="none" /><text fill="#e1ed5e" style="font-size:6.75px; font-family:Arial;" text-anchor="middle"><textPath startOffset="21.466115282336833" xlink:href="#id114">June</textPath></text><path d="M 109.57404056367764 118.69057910512821 l 5.532079690427746 10.79980520054275 a33.13423660849389,33.13423660849389 0 0,0 -0.5098666229499821,0.25565770940458615 l -5.345359159795003 -10.893430750856638" fill="#ff950d" stroke="none" /><path d="M 108.2653958097858 119.30500536409082 l 0.7408169150733045 1.7302830800150126 a22.882203293654797,22.882203293654797 0 0,0 -0.3634222794292892,0.15191054227586245 l -0.7109231761465542 -1.7427786653108481" fill="#ff0500" stroke="none" /><path d="M 107.59598834532513 119.57807347666477 l 3.994728808516788 10.296105072439214 a32.04389595732876,32.04389595732876 0 0,0 -0.515952165049157,0.19508896054978753 l -3.816906422707356 -10.363342283095633" fill="#ff860c" stroke="none" /><path d="M 107.2578585660854 119.70592522655815 l 0.5412193418290872 1.469473093770054 a22.565972397357005,22.565972397357005 0 0,0 -0.3656551905804723,0.13111094195361495 l -0.5158445906188801 -1.478571576763629" fill="#ff0000" stroke="none" /><line stroke="#e1ed5e" stroke-width="0.3" x1="102.19456741930631" x2="102.32365962044197" y1="184.97166512339345" y2="189.96999836594603" /><path d="M 102.22038585953345 185.97133177190398 a86.0,86.0 0 0,1 -42.740103519485714,-10.115201625700543" fill="none" id="id115" stroke="none" /><text fill="#e1ed5e" style="font-size:6.75px; font-family:Arial;" text-anchor="middle"><textPath startOffset="22.20632615414155" xlink:href="#id115">July</textPath></text><line stroke="#e1ed5e" stroke-width="0.3" x1="58.666819895761336" x2="56.23545636021788" y1="174.27360380694188" y2="178.64263932499728" /><path d="M 58.180547188652646 175.14741091055294 a86.0,86.0 0 0,1 -31.652253787137756,-30.449443065178592" fill="none" id="id116" stroke="none" /><text fill="#e1ed5e" style="font-size:6.75px; font-family:Arial;" text-anchor="middle"><textPath startOffset="22.20632615414155" xlink:href="#id116">August</textPath></text><line stroke="#e1ed5e" stroke-width="0.3" x1="26.63291911575756" x2="22.317208475507996" y1="142.92168965132927" y2="145.44649492493687" /><path d="M 25.769776987707644 143.4266507060508 a86.0,86.0 0 0,1 -11.730757126820373,-40.83630448921669" fill="none" id="id117" stroke="none" /><text fill="#e1ed5e" style="font-size:6.75px; font-family:Arial;" text-anchor="middle"><textPath startOffset="21.46611528233685" xlink:href="#id117">September</textPath></text><line stroke="#e1ed5e" stroke-width="0.3" x1="15.007084014347285" x2="10.007500721073583" y1="101.09737516637583" y2="101.16192664675087" /><path d="M 14.007167355692545 101.11028546245083 a86.0,86.0 0 0,1 10.666146001902534,-42.60595125391555" fill="none" id="id118" stroke="none" /><text fill="#e1ed5e" style="font-size:6.75px; font-family:Arial;" text-anchor="middle"><textPath startOffset="22.20632615414155" xlink:href="#id118">October</textPath></text><line stroke="#e1ed5e" stroke-width="0.3" x1="26.266209847984243" x2="21.928928074336255" y1="57.711370442889674" y2="55.22380399835377" /><path d="M 25.398753493254645 57.213857153982495 a86.0,86.0 0 0,1 29.58750427330803,-30.492523968695096" fill="none" id="id119" stroke="none" /><text fill="#e1ed5e" style="font-size:6.75px; font-family:Arial;" text-anchor="middle"><textPath startOffset="21.46611528233685" xlink:href="#id119">November</textPath></text><line stroke="#e1ed5e" stroke-width="0.3" x1="56.762969772571076" x2="54.21961505331055" y1="26.818313649435495" y2="22.513508569990535" /><path d="M 56.25429882871897 25.957352633546506 a86.0,86.0 0 0,1 42.265352541879196,-11.944610805530505" fill="none" id="id120" stroke="none" /><text fill="#e1ed5e" style="font-size:6.75px; font-family:Arial;" text-anchor="middle"><textPath startOffset="22.20632615414155" xlink:href="#id120">December</textPath></text></svg>