<?xml version="1.0" encoding="utf-8" ?>
<svg baseProfile="full" height="200mm" version="1.1" viewBox="0,0,200,200" width="200mm" xmlns="http://www.w3.org/2000/svg" xmlns:ev="http://www.w3.org/2001/xml-events" xmlns:xlink="http://www.w3.org/1999/xlink"><defs /><rect fill="#1a1a1a" height="200" width="200" x="0" y="0" /><text alignment-baseline="middle" fill="#e1ed5e" style="dominant-baseline: central; font-size:9.0px; font-family:Arial;" text-anchor="middle" x="100.0" y="100.0">2022</text><line stroke="#e1ed5e" stroke-width="0.3" x1="100.0" x2="100.0" y1="15.0" y2="10.0" /><path d="M 100.0 14.0 a86.0,86.0 0 0,1 42.46469731375804,11.215312516191453" fill="none" id="id73" stroke="none" /><text fill="#e1ed5e" style="font-size:6.75px; font-family:Arial;" text-anchor="middle"><textPath startOffset="22.20632615414155" xlink:href="#id73">January</textPath></text><path d="M 100.0 79.0 l 0.0 -46.125265818402326 a67.12526581840233,67.12526581840233 0 0,0 1.1554511075872351,0.009945332471936819 l -0.7939706283147069 46.11843186253895" fill="#36ff6b" stroke="none" /><path d="M 108.09893153111575 80.62456947434976 l 5.760535924453575 -13.781183748245159 a35.936693062382204,35.936693062382204 0 0,0 0.5686831807587477,0.24348045963676382 l -5.996902863002639 13.679983760645603" fill="#ff760a" stroke="none" /><line stroke="#e1ed5e" stroke-width="0.3" x1="143.23703022742887" x2="145.7803849466894" y1="26.81831364943548" y2="22.513508569990506" /><path d="M 143.74570117128098 25.957352633546492 a86.0,86.0 0 0,1 28.547481713284135,27.462654790039103" fill="none" id="id74" stroke="none" /><text fill="#e1ed5e" style="font-size:6.75px; font-family:Arial;" text-anchor="middle"><textPath startOffset="19.985693538727396" xlink:href="#id74">February</textPath></text><path d="M 112.19680574252982 82.90503203632743 l 19.308747923634254 -27.063022412677398 a54.245073747662666,54.245073747662666 0 0,0 0.7554393277256232,0.5488587989204412 l -19.771732567713666 26.726644378940282" fill="#8fff24" stroke="none" /><path d="M 113.89432698308785 84.25364557470407 l 13.425923279378381 -15.215515418720942 a41.29205079239378,41.29205079239378 0 0,0 0.5289099029896295,0.474860533157696 l -13.685844169964 14.982155876793948" fill="#ffc412" stroke="none" /><path d="M 114.16331599549186 84.49514656593476 l 11.053594998153562 -12.100582266217796 a37.38920539759967,37.38920539759967 0 0,0 0.4714460390695025,0.4381577132696465 l -11.260248921017912 11.90851996687351" fill="#ff8b0c" stroke="none" /><path d="M 115.9244219780498 86.31012108654704 l 22.41338108342414 -19.268295797241272 a50.557179745719665,50.557179745719665 0 0,0 0.5616406403190707,0.6648053675606231 l -22.741732337230328 18.87963148005154" fill="#bdff1f" stroke="none" /><path d="M 117.45458315368197 88.32363383020206 l 29.248016496573587 -19.5656663552142 a56.18894384472773,56.18894384472773 0 0,0 0.5308607387846951,0.8085373254309326 l -29.580473870716208 19.059310965805594" fill="#78ff26" stroke="none" /><line stroke="#e1ed5e" stroke-width="0.3" x1="172.23445277983987" x2="176.4835382374775" y1="55.19839476539836" y2="52.563006222186495" /><path d="M 173.08426987136738 54.67131705675599 a86.0,86.0 0 0,1 12.851231095245387,41.99856678651699" fill="none" id="id75" stroke="none" /><text fill="#e1ed5e" style="font-size:6.75px; font-family:Arial;" text-anchor="middle"><textPath startOffset="22.20632615414155" xlink:href="#id75">March</textPath></text><path d="M 119.34039704204932 91.81776055985345 l 18.845809181059998 -7.972996770825638 a41.46297146546711,41.46297146546711 0 0,0 0.27242813616623257,0.6597063405324588 l -18.980259004112426 7.647415859839876" fill="#ffc712" stroke="none" /><path d="M 119.7369772167798 92.82701384747503 l 10.342983840894066 -3.758938314193746 a32.0048594712931,32.0048594712931 0 0,0 0.18371843849425576,0.5193967654142541 l -10.406155360198131 3.5803439223528772" fill="#ff3905" stroke="none" /><path d="M 119.85752413597 93.16781622104841 l 14.866376500345483 -5.1149285118311125 a36.721693418050336,36.721693418050336 0 0,0 0.2005051783141443,0.5994849623784896 l -14.952218972431398 4.858270446530309" fill="#ff810b" stroke="none" /><path d="M 120.67395015179393 96.31383870115 l 20.562564068767518 -3.6663011818685822 a41.88685724177623,41.88685724177623 0 0,0 0.12045092074281104,0.7109081525597482 l -20.622626851030553 3.311807240992996" fill="#ffcd13" stroke="none" /><line stroke="#e1ed5e" stroke-width="0.3" x1="184.98032266829074" x2="189.97916517819016" y1="98.17113171792111" y2="98.06355123074" /><path d="M 185.9800911702706 98.14961562048488 a86.0,86.0 0 0,1 -9.607161424134198,41.387399972396054" fill="none" id="id76" stroke="none" /><text fill="#e1ed5e" style="font-size:6.75px; font-family:Arial;" text-anchor="middle"><textPath startOffset="21.466115282336823" xlink:href="#id76">April</textPath></text><path d="M 120.13307415673323 105.97154293290107 l 19.017588433090214 5.640685815010577 a40.836481700999,40.836481700999 0 0,0 -0.20568602233375793,0.672193821900326 l -18.917675638250326 -5.967206609462959" fill="#ffbe11" stroke="none" /><line stroke="#e1ed5e" stroke-width="0.3" x1="174.80103733775053" x2="179.2010983576182" y1="140.37084112569926" y2="142.7455964860345" /><path d="M 175.68104954172406 140.8457921977663 a86.0,86.0 0 0,1 -30.038265399797805,32.042727171017184" fill="none" id="id77" stroke="none" /><text fill="#e1ed5e" style="font-size:6.75px; font-family:Arial;" text-anchor="middle"><textPath startOffset="22.206326154141568" xlink:href="#id77">May</textPath></text><path d="M 117.35343817320211 111.8261652097733 l 16.17466009482398 11.022841732234061 a40.573519587365276,40.573519587365276 0 0,0 -0.3982756438561322,0.5737457697759157 l -15.982523543805714 -11.299628764196997" fill="#ffba11" stroke="none" /><path d="M 117.14729908036423 112.12312394758627 l 18.633713194291214 13.174017295636256 a43.820385603946875,43.820385603946875 0 0,0 -0.4407500450212764,0.6121632634462405 l -18.404183356894336 -13.492814164533627" fill="#ffe815" stroke="none" /><path d="M 116.71984013943494 112.70617746262583 l 15.543904417553268 11.812529685956688 a40.52303311792612,40.52303311792612 0 0,0 -0.4268294605396047,0.5517346149377395 l -15.338268139795595 -12.07834229500768" fill="#ffb911" stroke="none" /><path d="M 115.56566222782051 114.09645910891815 l 12.703999151920641 11.50490110499173 a38.13926322476087,38.13926322476087 0 0,0 -0.44487378682389705,0.48282263195734637 l -12.504078957101022 -11.721874991750411" fill="#ff970d" stroke="none" /><path d="M 115.07121518719521 114.62390073753431 l 12.614652565958973 12.240249022507522 a38.577063335291584,38.577063335291584 0 0,0 -0.46652413770588885,0.47258648844351075 l -12.40208780319755 -12.455576004931698" fill="#ff9d0e" stroke="none" /><path d="M 114.0293411484842 115.62618273729858 l 42.088023445452606 46.878548211895726 a84.0,84.0 0 0,0 -1.0842305883736492,0.9567074329108447 l -41.27485050417237 -47.59607878657886" fill="#4dd2ff" stroke="none" /><path d="M 113.48314897796784 116.09983520530334 l 10.107769094730408 12.069392467911797 a36.742846966698025,36.742846966698025 0 0,0 -0.4883821976531669,0.4019052997778216 l -9.898516768532549 -12.241592886546798" fill="#ff820b" stroke="none" /><path d="M 112.63410532772338 116.77436683061366 l 5.716227503605413 7.589464750013966 a30.501327910596473,30.501327910596473 0 0,0 -0.422102110143384,0.3122610500478214 l -5.584740423043465 -7.686735748801556" fill="#ff2103" stroke="none" /><path d="M 111.7513745106137 117.40417183066458 l 10.710247556385037 15.862228597337577 a40.13948010770527,40.13948010770527 0 0,0 -0.575954330279786,0.38171112427973336 l -10.435618527365286 -16.044237742708628" fill="#ffb410" stroke="none" /><path d="M 111.1453310114006 117.79835938074945 l 9.467472478460383 15.118929839466208 a38.83858387375821,38.83858387375821 0 0,0 -0.5696710322995779,0.3499384762365914 l -9.205822246228497 -15.279656782531177" fill="#ffa10e" stroke="none" /><line stroke="#e1ed5e" stroke-width="0.3" x1="143.8653032363475" x2="146.44561519142675" y1="172.8068346515853" y2="177.08958963109032" /><path d="M 144.38136562736335 173.6633856474863 a86.0,86.0 0 0,1 -40.68145358897372,12.25698825130547" fill="none" id="id78" stroke="none" /><text fill="#e1ed5e" style="font-size:6.75px; font-family:Arial;" text-anchor="middle"><textPath startOffset="21.466115282336833" xlink:href="#id78">June</textPath></text><path d="M 110.8373102113329 117.98757091392108 l 14.165154712851693 23.511066854728803 a48.44853133933675,48.44853133933675 0 0,0 -0.718035216870949,0.4242278625213458 l -13.758351624952363 -23.751413289543898" fill="#d8ff1c" stroke="none" /><path d="M 109.57404056367764 118.69057910512821 l 10.012332616994652 19.54621912870923 a42.96136349730712,42.96136349730712 0 0,0 -0.6610855587988234,0.33148202309280805 l -9.674393150513067 -19.71566899271134" fill="#ffdc14" stroke="none" /><path d="M 109.2508944713604 118.85261126421891 l 9.991527073934623 20.36196353163109 a43.681273600321546,43.681273600321546 0 0,0 -0.6778654148552694,0.32541659294395103 l -9.63954899107912 -20.530934401074603" fill="#ffe615" stroke="none" /><path d="M 108.59647513512805 119.15986991738527 l 7.323459373656399 16.322565556100148 a38.89019853245857,38.89019853245857 0 0,0 -0.6131305091691618,0.2687783969750344 l -7.041408189829483 -16.446208506369636" fill="#ffa20e" stroke="none" /><path d="M 106.57524785965236 119.94407469862006 l 7.58617004628898 23.01040893196392 a45.228679187843014,45.228679187843014 0 0,0 -0.7414889921001891,0.2374013598198719 l -7.18895970909785 -23.1375831384435" fill="#fffb17" stroke="none" /><path d="M 105.88484417918355 120.15858648285463 l 6.699383724528345 22.948798996317677 a44.90667516953929,44.90667516953929 0 0,0 -0.74388726835874,0.21022997252726539 l -6.303365288064999 -23.06071776218346" fill="#fff717" stroke="none" /><path d="M 105.18746579009965 120.34920634021253 l 7.260071906137235 28.479551912366166 a50.39036442801352,50.39036442801352 0 0,0 -0.8423510434784136,0.20702939218792726 l -6.768767577915611 -28.600302562868123" fill="#bfff1e" stroke="none" /><path d="M 104.13013068566511 120.58985236759428 l 5.413124954303272 26.985936315111143 a48.52349324802604,48.52349324802604 0 0,0 -0.8203529312933563,0.1572225917388039 l -4.947804408438211 -27.075116105198415" fill="#d7ff1c" stroke="none" /><path d="M 102.34483914955558 120.86867818915974 l 3.9601587630522 35.2447539183148 a56.46654108016661,56.46654108016661 0 0,0 -0.966834645469456,0.10021636415127007 l -3.352891520977141 -35.307699650921826" fill="#75ff27" stroke="none" /><line stroke="#e1ed5e" stroke-width="0.3" x1="102.19456741930631" x2="102.32365962044197" y1="184.97166512339345" y2="189.96999836594603" /><path d="M 102.22038585953345 185.97133177190398 a86.0,86.0 0 0,1 -42.740103519485714,-10.115201625700543" fill="none" id="id79" stroke="none" /><text fill="#e1ed5e" style="font-size:6.75px; font-family:Arial;" text-anchor="middle"><textPath startOffset="22.20632615414155" xlink:href="#id79">July</textPath></text><path d="M 97.2962882734958 120.8252237178851 l -2.5106458512688916 19.33814208686261 a40.50043799411133,40.50043799411133 0 0,0 -0.6905737566715161,-0.09570723015226608 l 2.8431481991272385 -19.292060291217737" fill="#ffb911" stroke="none" /><path d="M 95.16358092515715 120.4354850818985 l -2.892395135220954 12.22133498402104 a33.55894017861007,33.55894017861007 0 0,0 -0.560988367485722,-0.13787729194882 l 3.102336787449887 -12.16973643375819" fill="#ff5107" stroke="none" /><path d="M 92.7421414339146 119.70592522655815 l -3.8921750001849773 10.56770517418507 a32.26167922117136,32.26167922117136 0 0,0 -0.5194587844265353,-0.19641486394882043 l 4.073504005371795 -10.499142060129618" fill="#ff3d05" stroke="none" /><path d="M 90.10565033884886 118.52300852407294 l -7.38260456731895 13.820822187761557 a36.66901324726994,36.66901324726994 0 0,0 -0.5541861102842907,-0.30218645396119276 l 7.619413489471881 -13.6916950820406" fill="#ff810b" stroke="none" /><line stroke="#e1ed5e" stroke-width="0.3" x1="58.666819895761336" x2="56.23545636021788" y1="174.27360380694188" y2="178.64263932499728" /><path d="M 58.180547188652646 175.14741091055294 a86.0,86.0 0 0,1 -31.652253787137756,-30.449443065178592" fill="none" id="id80" stroke="none" /><text fill="#e1ed5e" style="font-size:6.75px; font-family:Arial;" text-anchor="middle"><textPath startOffset="22.20632615414155" xlink:href="#id80">August</textPath></text><path d="M 88.24862548938628 117.40417183066458 l -9.707987860900742 14.377849051489257 a38.348416978353,38.348416978353 0 0,0 -0.5438958086958622,-0.37409649672777856 l 9.954040554219494 -14.208611765396377" fill="#ff9a0e" stroke="none" /><path d="M 87.95078237400918 117.19931262002967 l -9.391839911190074 13.406114465174397 a37.368584604991995,37.368584604991995 0 0,0 -0.5236453926769495,-0.3736070840275161 l 9.62121263171591 -13.242463119302661" fill="#ff8b0c" stroke="none" /><path d="M 86.24171649860922 115.8653595955263 l -10.783852632171222 12.43539572485654 a37.45996793515001,37.45996793515001 0 0,0 -0.4835147985093539,-0.4266455923828562 l 10.996309783587163 -12.247926990701396" fill="#ff8c0c" stroke="none" /><path d="M 85.18274418774928 114.88116024355367 l -13.293555029239862 13.350887985146278 a39.840509953484585,39.840509953484585 0 0,0 -0.4818033812026548,-0.48806428143770747 l 13.52139903549805 -13.120083209727905" fill="#ffaf10" stroke="none" /><path d="M 84.19399662182784 113.82643327865904 l -19.31624270362398 16.897044404334824 a46.66373592810231,46.66373592810231 0 0,0 -0.523650423946118,-0.6091237455510345 l 19.604235637140878 -16.562043559622257" fill="#f0ff19" stroke="none" /><path d="M 83.50135304334701 112.99209946851258 l -13.561679158666083 10.679341466749445 a38.26173443678335,38.26173443678335 0 0,0 -0.4030111818490069,-0.5209462789938634 l 13.74349715773316 -10.444317193642329" fill="#ff980e" stroke="none" /><path d="M 82.05923443525364 110.91462005526583 l -10.805658020116496 6.573836066865462 a33.64822382319862,33.64822382319862 0 0,0 -0.2967759309925115,-0.49741353086310724 l 10.917214826807239 -6.386860442116244" fill="#ff5307" stroke="none" /><line stroke="#e1ed5e" stroke-width="0.3" x1="26.63291911575756" x2="22.317208475507996" y1="142.92168965132927" y2="145.44649492493687" /><path d="M 25.769776987707644 143.4266507060508 a86.0,86.0 0 0,1 -11.730757126820373,-40.83630448921669" fill="none" id="id81" stroke="none" /><text fill="#e1ed5e" style="font-size:6.75px; font-family:Arial;" text-anchor="middle"><textPath startOffset="21.46611528233685" xlink:href="#id81">September</textPath></text><path d="M 81.35079622478065 109.6543875284942 l -25.28795707597018 13.091161443565248 a49.475590968715636,49.475590968715636 0 0,0 -0.3850174709151466,-0.7596759967325254 l 25.50955321667159 -12.653931235130038" fill="#cbff1d" stroke="none" /><path d="M 80.32549172779594 107.34259656027581 l -29.377481974307013 10.963780904189608 a52.35667295594043,52.35667295594043 0 0,0 -0.30784661354964415,-0.8470616656290958 l 29.561852848861882 -10.456471441554395" fill="#a6ff21" stroke="none" /><path d="M 79.67330655649465 105.27499134158121 l -32.53816357258672 8.443996638872367 a54.615965967285504,54.615965967285504 0 0,0 -0.2283173271797051,-0.9120142280545963 l 32.678692214061485 -7.882654571420378" fill="#8bff24" stroke="none" /><path d="M 79.1416061653843 102.43462659150553 l -28.01482291960056 3.2699369557011155 a49.205013577568735,49.205013577568735 0 0,0 -0.0909535896043196,-0.8421172791184496 l 28.06695881070593 -2.787223354697884" fill="#ceff1d" stroke="none" /><line stroke="#e1ed5e" stroke-width="0.3" x1="15.007084014347285" x2="10.007500721073583" y1="101.09737516637583" y2="101.16192664675087" /><path d="M 14.007167355692545 101.11028546245083 a86.0,86.0 0 0,1 10.666146001902534,-42.60595125391555" fill="none" id="id82" stroke="none" /><text fill="#e1ed5e" style="font-size:6.75px; font-family:Arial;" text-anchor="middle"><textPath startOffset="22.20632615414155" xlink:href="#id82">October</textPath></text><path d="M 79.01574976396665 99.18683210126434 l -32.91162407890716 -1.2753696651151651 a53.93632595317816,53.93632595317816 0 0,0 0.04393599629527484,-0.9274194405358941 l 32.88479447437838 1.8417002122740684" fill="#93ff23" stroke="none" /><path d="M 79.08570108090925 98.10471618934814 l -34.59649658598126 -3.1351842171878577 a55.73826357346487,55.73826357346487 0 0,0 0.09481576115836653,-0.9547817754010112 l 34.53740369914066 3.7302415232932993" fill="#7dff26" stroke="none" /><path d="M 79.32604984820605 96.31383870115002 l -28.266097970285582 -5.039839781103836 a49.711883941757975,49.711883941757975 0 0,0 0.15745476064109554,-0.8411296273877573 l 28.175157485734626 5.525647485954166" fill="#c8ff1d" stroke="none" /><path d="M 80.2630227832202 92.82701384747504 l -20.642111026875597 -7.50193785646063 a42.96305578119894,42.96305578119894 0 0,0 0.2585872911758175,-0.6928853788385654 l 20.50991914719815 7.856146372328537" fill="#ffdc14" stroke="none" /><path d="M 80.38941819471856 92.48833698450439 l -17.593647688004285 -6.739093921734115 a39.8401652289881,39.8401652289881 0 0,0 0.25081556271673333,-0.6382982493528692 l 17.47503857540586 7.040941175982748" fill="#ffaf10" stroke="none" /><path d="M 80.95270993114464 91.15688171328213 l -31.59881600815706 -14.67043693198502 a55.838296354625506,55.838296354625506 0 0,0 0.4122509676009848,-0.868305674872123 l 31.341606846714324 15.212185022497675" fill="#7cff26" stroke="none" /><line stroke="#e1ed5e" stroke-width="0.3" x1="26.266209847984243" x2="21.928928074336255" y1="57.711370442889674" y2="55.22380399835377" /><path d="M 25.398753493254645 57.213857153982495 a86.0,86.0 0 0,1 29.58750427330803,-30.492523968695096" fill="none" id="id83" stroke="none" /><text fill="#e1ed5e" style="font-size:6.75px; font-family:Arial;" text-anchor="middle"><textPath startOffset="21.46611528233685" xlink:href="#id83">November</textPath></text><path d="M 81.78341655067845 89.55222093294921 l -24.467868766636084 -14.033086271450484 a49.20645515273583,49.20645515273583 0 0,0 0.4277220162734168,-0.7311155739399287 l 24.222687075892342 14.452181257744304" fill="#ceff1d" stroke="none" /><path d="M 82.54541684631803 88.32363383020206 l -42.32954412444112 -28.31664627254833 a71.9276227788774,71.9276227788774 0 0,0 0.6972716304946309,-1.023160078950768 l 41.835848028277745 29.041084374769515" fill="#3cffa7" stroke="none" /><path d="M 83.17141714833178 87.43820079747576 l -21.76200130308671 -16.244379756988675 a48.156298982092736,48.156298982092736 0 0,0 0.5015686293878542,-0.6600055230605387 l 21.479156733474746 16.616570055930243" fill="#dcff1b" stroke="none" /><path d="M 84.31358615837235 86.03803664274999 l -20.23010311679886 -18.006152412005168 a48.08280998716113,48.08280998716113 0 0,0 0.5555999819254758,-0.6135073769670181 l 19.91715949425734 18.35171257624174" fill="#ddff1b" stroke="none" /><path d="M 86.10567301691215 84.25364557470407 l -21.949417875828146 -24.875138876637102 a54.17453058024645,54.17453058024645 0 0,0 0.7045428693745387,-0.6109726336408754 l 21.517981207806834 25.249276503697658" fill="#90ff24" stroke="none" /><line stroke="#e1ed5e" stroke-width="0.3" x1="56.762969772571076" x2="54.21961505331055" y1="26.818313649435495" y2="22.513508569990535" /><path d="M 56.25429882871897 25.957352633546506 a86.0,86.0 0 0,1 42.265352541879196,-11.944610805530505" fill="none" id="id84" stroke="none" /><text fill="#e1ed5e" style="font-size:6.75px; font-family:Arial;" text-anchor="middle"><textPath startOffset="22.20632615414155" xlink:href="#id84">December</textPath></text><path d="M 89.3179101791058 81.91981866633112 l -18.02512889348153 -30.50878661584023 a56.435735245617444,56.435735245617444 0 0,0 0.840632494788154,-0.4869486000543745 l 17.497299666228056 30.81453937328465" fill="#75ff27" stroke="none" /><path d="M 89.94658935756843 81.56283822128135 l -3.564990750537207 -6.537911714247126 a28.44670723438928,28.44670723438928 0 0,0 0.43192254817352926,-0.23071806680919424 l 3.4519231558353725 6.59830850755807" fill="#ff0000" stroke="none" /><path d="M 90.91171255644093 81.06846463323043 l -15.468715949541835 -32.222412076634534 a56.74304146493486,56.74304146493486 0 0,0 0.8841695011645938,-0.4151294362154303 l 14.911768237077633 32.48390649548997" fill="#71ff27" stroke="none" /><path d="M 92.57280143429618 80.3572730644239 l -11.99767401911219 -31.73027252936309 a54.92277076915348,54.92277076915348 0 0,0 0.8871797410685024,-0.3267557858533559 l 11.449711952271118 31.93209158302277" fill="#87ff25" stroke="none" /><path d="M 98.55514903715128 79.0497635885617 l -1.739312060703772 -25.219901430640043 a46.27980685479439,46.27980685479439 0 0,0 0.7952147945515228,-0.04796952804475039 l 1.304935217312626 25.2461042280651" fill="#f5ff19" stroke="none" /></svg>